<svg width="429" height="288" viewBox="0 0 429 288" fill="none" xmlns="http://www.w3.org/2000/svg">
<g clip-path="url(#clip0_50_3922)">
<path d="M394.133 150.058C379.79 131.623 354.435 130.426 342.151 99.9886C332.264 75.4589 341.028 61.5861 330.691 50.8917C309.082 28.4934 260.134 78.5251 217.964 54.7432C198.64 43.8619 203.059 30.1013 181.862 18.173C150.927 0.785262 102.578 8.15166 85.0136 36.4581C67.4116 64.8393 86.4367 87.0506 71.2691 125.939C54.2289 169.539 16.2537 170.811 10.1867 203.941C8.9508 210.709 8.8759 221.291 12.8831 234.117C22.7702 265.714 50.2591 286.729 80.8191 286.729H332.077C365.82 286.729 395.144 261.152 402.335 225.143C410.462 184.422 403.908 162.622 394.133 150.058Z" fill="#D9DFFF"/>
<path d="M53.33 133.455C45.4653 145.384 32.9942 150.656 25.504 145.234C18.0138 139.812 34.1552 128.407 31.3089 118.236C25.7662 98.5303 46.514 96.6606 54.0041 102.083C61.4569 107.505 61.1947 121.564 53.33 133.455Z" fill="#D9DFFF"/>
<path d="M32.8069 161.724C30.2977 163.893 27.4889 165.65 24.9797 167.857C22.5079 170.025 20.1485 172.344 17.9389 174.812C13.5572 179.635 9.62483 184.983 6.70366 190.928C0.711522 203.268 -1.42318 216.916 0.936227 230.564C2.24701 238.193 4.86857 245.559 8.65111 252.252C9.96189 254.608 13.5197 252.439 12.134 250.121C5.39288 238.866 2.62152 225.89 3.7825 212.728C4.94347 199.491 10.3364 187.376 18.7254 177.429C20.935 174.812 23.2944 172.344 25.6913 169.913C28.2005 167.333 30.5973 164.529 33.3312 162.21C33.6309 161.949 33.144 161.425 32.8069 161.724Z" fill="#D9DFFF"/>
<path d="M15.4297 255.917C15.3548 255.655 15.205 255.393 14.9803 255.207C14.7181 254.945 14.4185 254.758 14.044 254.646C13.5197 254.421 12.8081 254.571 12.3213 254.87C12.3587 254.87 12.3587 254.833 12.3962 254.833C12.0591 255.02 11.7595 255.281 11.5722 255.618C11.3101 256.104 11.1977 256.702 11.385 257.226V257.263V257.151C11.4224 257.375 11.4973 257.6 11.6097 257.824C11.8344 258.161 12.0965 258.422 12.4336 258.647C12.9205 258.983 13.5197 258.983 14.0814 258.871C14.456 258.759 14.7556 258.572 15.0177 258.31C15.2424 258.123 15.3548 257.861 15.4671 257.6C15.6544 257.076 15.6544 256.515 15.4297 255.917Z" fill="#D9DFFF"/>
<path d="M196.467 16.2286C188.191 8.93697 177.929 4.07589 167.406 1.60796C155.983 -1.04693 144.598 -0.112112 133.175 2.05668C126.284 3.36543 119.543 5.38464 113.027 8.00214C112.727 8.11432 112.84 8.63782 113.177 8.52564C124.449 4.86114 135.797 2.31843 147.631 2.39321C158.155 2.468 169.203 4.59939 178.828 9.12393C184.221 11.6666 189.164 15.1068 193.584 19.1826C195.569 20.9775 198.415 17.9487 196.467 16.2286Z" fill="#D9DFFF"/>
<path d="M202.31 22.9966C202.197 22.5853 201.973 22.2113 201.673 21.8748C201.523 21.7252 201.336 21.6131 201.186 21.4635C200.812 21.2391 200.4 21.127 199.95 21.127C199.613 21.127 199.314 21.2017 199.014 21.3513C198.715 21.4635 198.452 21.6131 198.228 21.8748C198.003 22.0992 197.816 22.3609 197.741 22.6975C197.591 22.9966 197.516 23.3331 197.516 23.6697C197.554 23.894 197.591 24.1184 197.591 24.3427C197.703 24.7541 197.928 25.128 198.228 25.4645C198.377 25.6141 198.565 25.7263 198.715 25.8758C199.089 26.1002 199.501 26.2124 199.95 26.2124C200.287 26.2124 200.587 26.1376 200.887 25.988C201.186 25.8758 201.448 25.7263 201.673 25.4645C201.898 25.2402 202.085 24.9784 202.16 24.6419C202.31 24.3427 202.385 24.0062 202.385 23.6697C202.347 23.4453 202.31 23.221 202.31 22.9966Z" fill="#D9DFFF"/>
<path d="M399.264 145.72C395.818 141.27 391.924 137.12 387.542 133.642C387.055 133.268 386.493 134.091 386.905 134.502C395.818 143.402 402.897 153.797 407.278 165.912C411.548 177.766 413.271 190.405 412.297 203.043C412.072 205.81 416.154 205.773 416.379 203.043C418.214 182.515 411.585 161.649 399.264 145.72Z" fill="#D9DFFF"/>
<path d="M415.181 211.569C415.068 211.12 414.844 210.709 414.507 210.372C414.319 210.223 414.17 210.073 413.982 209.961C413.57 209.699 413.121 209.587 412.672 209.587C412.297 209.587 411.96 209.662 411.66 209.812C411.323 209.924 411.061 210.111 410.836 210.372C410.574 210.634 410.387 210.896 410.312 211.27C410.162 211.606 410.087 211.943 410.087 212.317C410.125 212.541 410.162 212.803 410.162 213.027C410.275 213.476 410.499 213.887 410.836 214.224C411.024 214.373 411.173 214.523 411.361 214.635C411.773 214.897 412.222 215.009 412.672 215.009C413.046 215.009 413.383 214.934 413.683 214.785C414.02 214.673 414.282 214.486 414.507 214.224C414.769 213.962 414.956 213.7 415.031 213.326C415.181 212.99 415.256 212.653 415.256 212.279C415.218 212.055 415.181 211.793 415.181 211.569Z" fill="#D9DFFF"/>
<path d="M166.357 23.8193C166.357 24.941 167.218 25.8759 168.304 26.0254V40.7208L156.807 52.2005V62.8948C156.807 63.194 157.032 63.4183 157.331 63.4183C157.631 63.4183 157.856 63.194 157.856 62.8948V52.6492L169.353 41.1696V25.9133C170.214 25.6141 170.814 24.7915 170.814 23.8193C170.814 22.5853 169.802 21.5757 168.566 21.5757C167.331 21.5757 166.357 22.5479 166.357 23.8193ZM169.765 23.8193C169.765 24.4549 169.241 24.9784 168.604 24.9784C167.967 24.9784 167.443 24.4549 167.443 23.8193C167.443 23.1836 167.967 22.6601 168.604 22.6601C169.241 22.6227 169.765 23.1462 169.765 23.8193Z" fill="#B3B3B3"/>
<path d="M144.486 44.1984C144.486 43.0393 143.699 42.067 142.613 41.8053V21.7627C143.737 21.6505 144.598 20.7157 144.598 19.5565C144.598 18.3226 143.587 17.3503 142.388 17.3503C141.153 17.3503 140.179 18.3599 140.179 19.5565C140.179 20.454 140.703 21.2018 141.452 21.5383V41.7679C140.366 42.0296 139.58 43.0019 139.58 44.161C139.58 45.5072 140.703 46.629 142.051 46.629C143.362 46.6664 144.486 45.5446 144.486 44.1984ZM140.741 44.1984C140.741 43.488 141.302 42.9271 142.014 42.9271C142.725 42.9271 143.287 43.488 143.287 44.1984C143.287 44.9089 142.725 45.4698 142.014 45.4698C141.302 45.4698 140.741 44.9089 140.741 44.1984Z" fill="#B3B3B3"/>
<path d="M286.275 55.6032L284.926 55.0423C285.263 53.1352 285.338 51.2282 285.114 49.3586L286.687 48.7229C289.046 47.7507 290.207 45.0584 289.233 42.7026C288.259 40.3469 285.563 39.1877 283.204 40.1599L281.855 40.7208C280.769 39.1503 279.496 37.7668 277.96 36.5702L278.635 34.9997C279.646 32.6439 278.522 29.9143 276.163 28.9421C273.803 27.9324 271.07 29.0542 270.096 31.41L269.534 32.7561C267.624 32.4196 265.714 32.3448 263.841 32.5692L263.205 30.9987C262.231 28.6429 259.535 27.4837 257.175 28.4559C254.816 29.4282 253.655 32.1204 254.629 34.4762L255.19 35.8223C253.617 36.9067 252.232 38.1781 251.033 39.7112L249.46 39.0381C247.101 38.0285 244.367 39.1503 243.393 41.5061C242.382 43.8618 243.506 46.5915 245.865 47.5637L247.213 48.1246C246.876 50.0316 246.801 51.9387 247.026 53.8083L245.453 54.444C243.094 55.4162 241.933 58.1085 242.906 60.4642C243.88 62.82 246.577 63.9792 248.936 63.007L250.284 62.4461C251.37 64.0166 252.681 65.4001 254.179 66.5967L253.505 68.1672C252.494 70.5229 253.617 73.2526 255.977 74.2248C258.336 75.2344 261.07 74.1127 262.044 71.7569L262.606 70.4108C264.516 70.7473 266.426 70.8221 268.298 70.5977L268.935 72.1682C269.909 74.524 272.605 75.6832 274.964 74.7109C277.324 73.7387 278.485 71.0464 277.511 68.6907L276.949 67.3445C278.522 66.2602 279.908 64.9514 281.106 63.4557L282.679 64.1288C285.039 65.1384 287.773 64.0166 288.746 61.6608C289.72 59.3051 288.634 56.6128 286.275 55.6032ZM278.747 56.9119C275.788 63.9044 267.699 67.195 260.658 64.2409C253.655 61.2869 250.359 53.21 253.318 46.1802C256.276 39.1503 264.366 35.8971 271.407 38.8512C278.41 41.8052 281.706 49.9195 278.747 56.9119Z" fill="url(#paint0_linear_50_3922)"/>
<path d="M257.999 48.1621C256.127 52.5744 258.186 57.6973 262.643 59.5669C267.062 61.4365 272.193 59.3799 274.066 54.9302C275.938 50.5178 273.878 45.395 269.422 43.5254C265.003 41.6557 259.872 43.7497 257.999 48.1621Z" fill="url(#paint1_linear_50_3922)"/>
<path d="M315.786 26.8855L314.887 26.5115C315.112 25.2402 315.149 23.9688 314.999 22.7348L316.048 22.3235C317.621 21.6878 318.37 19.893 317.733 18.3225C317.097 16.752 315.299 16.0041 313.726 16.6398L312.827 17.0137C312.116 15.9667 311.254 15.0693 310.243 14.2467L310.693 13.1997C311.367 11.6292 310.618 9.8343 309.045 9.19862C307.472 8.52554 305.674 9.2734 305.037 10.8439L304.663 11.7413C303.39 11.517 302.116 11.4796 300.88 11.6292L300.468 10.5822C299.832 9.01165 298.034 8.26379 296.461 8.89947C294.888 9.53515 294.139 11.33 294.776 12.9005L295.15 13.7979C294.102 14.5084 293.203 15.3684 292.379 16.378L291.33 15.9293C289.758 15.2563 287.96 16.0041 287.323 17.5746C286.649 19.1451 287.398 20.94 288.971 21.5757L289.87 21.9496C289.645 23.2209 289.608 24.4923 289.758 25.7263L288.709 26.1376C287.136 26.7733 286.387 28.5681 287.024 30.1386C287.66 31.7091 289.458 32.457 291.031 31.8213L291.93 31.4474C292.641 32.457 293.503 33.3918 294.514 34.2145L294.064 35.2615C293.39 36.832 294.139 38.6268 295.712 39.2625C297.285 39.9356 299.083 39.1877 299.719 37.6172L300.094 36.7198C301.367 36.9441 302.641 36.9815 303.877 36.832L304.288 37.879C304.925 39.4495 306.723 40.1973 308.296 39.5616C309.869 38.926 310.618 37.1311 309.981 35.5606L309.606 34.6632C310.618 33.9527 311.554 33.0927 312.378 32.0831L313.426 32.5318C314.999 33.2048 316.797 32.457 317.434 30.8865C318.07 29.3534 317.321 27.5585 315.786 26.8855ZM310.805 27.7455C308.857 32.3822 303.502 34.551 298.858 32.6066C294.214 30.6621 292.042 25.3149 293.989 20.6782C295.937 16.0415 301.292 13.8727 305.936 15.8172C310.58 17.799 312.752 23.1462 310.805 27.7455Z" fill="url(#paint2_linear_50_3922)"/>
<path d="M297.098 21.987C295.862 24.9036 297.248 28.3064 300.169 29.5403C303.09 30.7743 306.498 29.3908 307.734 26.4741C308.97 23.5575 307.584 20.1547 304.663 18.9208C301.704 17.6868 298.334 19.0329 297.098 21.987Z" fill="url(#paint3_linear_50_3922)"/>
<path d="M95.7994 77.7398C95.7994 78.9738 95.7619 80.1704 95.687 81.4043C95.5747 82.6757 95.4249 83.947 95.2376 85.181C95.2001 85.368 95.1627 85.5549 95.1252 85.7419C94.8631 87.1254 94.5635 88.509 94.2264 89.8925C94.189 90.0795 94.1141 90.3038 94.0766 90.4908C94.0392 90.6404 94.0017 90.8273 93.9643 90.9769C92.8782 90.9395 91.7921 90.9021 90.7435 90.8647C91.1929 89.2194 91.53 87.5368 91.7172 85.8541C91.7172 85.8167 91.7172 85.7793 91.7172 85.7419C91.7547 85.5923 91.7547 85.4428 91.7547 85.2932C91.7547 85.2558 91.7547 85.2184 91.7547 85.181V85.1436C92.3164 78.7494 90.4813 72.5796 87.4104 66.8585C85.0135 62.4461 81.8676 58.3329 78.497 54.6684C75.2388 51.1161 71.7184 47.7881 68.2729 44.3854C63.5541 39.8234 58.9851 35.0745 55.4273 29.5404C53.6671 26.8107 52.1691 23.2958 53.7795 20.4913C54.1165 19.9304 54.5659 19.4069 55.0528 18.9956C55.652 19.3695 56.2887 19.7435 56.8879 20.08C57.5245 20.4913 58.1987 20.8653 58.8353 21.2766C61.1947 22.7723 63.5167 24.3428 65.8012 26.0255C66.4753 26.5116 67.1494 27.0351 67.7861 27.5212C74.0778 32.4197 79.8453 38.066 84.4517 44.5723C88.2717 49.9195 91.3052 55.865 93.2527 62.147C94.8631 67.2324 95.7619 72.4674 95.7994 77.7398Z" fill="url(#paint4_linear_50_3922)"/>
<path d="M103.627 75.0475C103.552 78.3755 103.14 81.7408 102.241 84.9192C102.166 85.181 102.091 85.4427 102.016 85.7045C101.679 86.7889 101.267 87.8733 100.743 88.9203C100.368 89.7055 99.9564 90.4534 99.507 91.2012C97.8591 91.1264 96.2487 91.0891 94.7132 91.0143C94.6009 91.0143 94.4511 91.0143 94.3387 91.0143H94.2638C94.1515 91.0143 94.0391 91.0143 93.9268 91.0143C93.9642 90.8647 94.0017 90.6777 94.0391 90.5282C94.114 90.3412 94.1515 90.1168 94.1889 89.9299C94.526 88.5463 94.863 87.1628 95.0877 85.7793C95.1252 85.5923 95.1626 85.4053 95.2001 85.2184C95.3873 83.9844 95.5746 82.7131 95.6495 81.4417C95.7244 80.2077 95.7993 79.0112 95.7619 77.7772C95.7244 72.5048 94.8256 67.2324 93.2526 62.2218C91.2677 55.9397 88.2717 49.9943 84.4517 44.6471C79.8452 38.1407 74.0778 32.4944 67.786 27.5959C67.1119 27.0724 66.4753 26.5863 65.8011 26.1002C63.5541 24.4175 61.2321 22.847 58.8353 21.3513C58.1986 20.94 57.5245 20.5287 56.8878 20.1548C56.2886 19.7808 55.6519 19.4069 55.0527 19.0704C55.1651 18.9582 55.2774 18.8834 55.4272 18.8086C55.9141 18.4721 56.4759 18.1729 57.0751 17.9486C57.7117 17.6868 58.4233 17.4999 59.0974 17.3877C61.3819 16.9764 63.6664 17.0885 65.9135 17.5373C69.9582 18.3973 73.8531 20.4913 77.2986 22.8844C93.9268 34.4762 104.151 54.7432 103.627 75.0475Z" fill="url(#paint5_linear_50_3922)"/>
<path d="M96.1738 78.4502C96.1738 80.1329 96.0615 81.7782 95.8742 83.4609C95.7993 84.0592 95.7244 84.6201 95.6121 85.2184C95.5746 85.4053 95.5371 85.5923 95.4997 85.7792C95.2001 87.3871 94.8256 88.9576 94.4511 90.5281C94.4136 90.7151 94.3762 90.9021 94.3013 91.0516H94.2264C94.114 91.0516 94.0017 91.0516 93.8893 91.0516C93.9268 90.9021 93.9642 90.7151 94.0017 90.5655C94.0766 90.3786 94.114 90.1542 94.1515 89.9673C94.4885 88.5837 94.8256 87.2002 95.0503 85.8166C95.0877 85.6297 95.1252 85.4427 95.1626 85.2557C95.3499 84.0218 95.5372 82.7504 95.6121 81.4791C95.687 80.2451 95.7619 79.0485 95.7244 77.8146C95.687 72.5422 94.7881 67.2698 93.2152 62.2591C91.2303 55.9771 88.2342 50.0317 84.4142 44.6845C79.8452 38.1407 74.0778 32.4944 67.786 27.5959C67.1119 27.0724 66.4753 26.5863 65.8011 26.1002C63.5541 24.4175 61.2321 22.847 58.8353 21.3513C58.1986 20.94 57.5245 20.5287 56.8878 20.1547C56.2886 19.7808 55.6519 19.4069 55.0527 19.0703C55.1651 18.9582 55.2774 18.8834 55.4272 18.8086C55.9516 19.1077 56.4384 19.4069 56.9253 19.706C57.5619 20.1173 58.2361 20.4913 58.8727 20.9026C61.2321 22.3983 63.5541 23.9688 65.8011 25.6141C67.3366 26.7359 68.8721 27.9325 70.3327 29.1664C76.3623 34.1397 81.8301 39.8608 86.137 46.4045C89.7697 51.8639 92.5785 57.9216 94.3013 64.2409C95.5746 68.8029 96.2487 73.6266 96.1738 78.4502Z" fill="white"/>
<path d="M94.2639 91.0143C94.1515 91.0143 94.0392 91.0143 93.9268 91.0143C92.8407 90.9769 91.7547 90.9395 90.706 90.9021C90.4813 90.9021 90.2192 90.8647 89.9945 90.8647C88.7586 88.9951 87.2606 87.3124 85.6127 85.7793C85.5378 85.7045 85.5004 85.6671 85.4255 85.5923C84.7514 84.9941 84.0772 84.3958 83.3282 83.8349C78.5345 80.0582 72.7296 77.3659 66.9247 75.3841C56.5134 71.8692 45.4654 70.0369 35.803 64.8019C33.0691 63.3062 30.1479 61.0252 30.2228 57.9216C30.2228 57.2859 30.3727 56.6502 30.6348 56.0894C35.5783 56.2389 40.4844 56.6503 45.353 57.4355C52.9181 58.6321 60.4083 60.7635 67.3367 64.0914C70.52 65.6245 73.5535 67.4194 76.4373 69.476C78.7218 71.1213 80.8939 72.8788 82.9163 74.8232C86.1745 77.9268 89.0582 81.4791 91.4176 85.3306C91.4925 85.4802 91.6049 85.5923 91.6798 85.7419C91.7172 85.7793 91.7172 85.8167 91.7547 85.8541C92.5411 87.1628 93.2527 88.5464 93.8894 89.9299C93.9643 90.1169 94.0766 90.3038 94.1515 90.4908C94.1141 90.6778 94.189 90.8273 94.2639 91.0143Z" fill="url(#paint6_linear_50_3922)"/>
<path d="M101.23 91.2761C100.631 91.2387 100.069 91.2387 99.507 91.2013C97.8592 91.1265 96.2488 91.0891 94.7133 91.0144C94.6009 91.0144 94.4511 91.0144 94.3388 91.0144H94.2639C94.189 90.8274 94.1141 90.6778 94.0392 90.4909C93.9643 90.3039 93.8894 90.1169 93.777 89.93C93.1404 88.5464 92.4288 87.1629 91.6423 85.8541C91.6423 85.8168 91.6049 85.7794 91.5674 85.742C91.4925 85.5924 91.4176 85.4802 91.3053 85.3306C88.9833 81.4792 86.0621 77.9643 82.8039 74.8232C80.7816 72.8788 78.6094 71.084 76.3249 69.4761C73.4412 67.4195 70.4077 65.6246 67.2243 64.0915C60.2959 60.7635 52.8057 58.6695 45.2407 57.4356C40.372 56.6503 35.466 56.239 30.5225 56.0894C30.5599 55.9398 30.6348 55.8277 30.7097 55.7155C31.2715 54.5937 32.1703 53.6215 33.144 52.7988C37.9752 48.8352 44.7913 48.3491 51.0456 49.0222C58.0114 49.77 64.79 51.8266 71.0069 54.9676C77.0365 57.9964 82.6167 62.0349 87.3355 66.8586C90.5562 70.1491 93.3651 73.7762 95.7245 77.7025C95.8743 77.9269 95.9866 78.1512 96.1364 78.3756C96.6233 79.1982 97.0727 80.0209 97.4847 80.8435C98.1588 82.1896 98.8329 83.5732 99.3572 84.9941C99.4696 85.2185 99.5445 85.4802 99.6194 85.7046C100.031 86.7516 100.368 87.836 100.631 88.9204C100.93 89.7056 101.117 90.4909 101.23 91.2761Z" fill="url(#paint7_linear_50_3922)"/>
<path d="M94.7133 91.0145C94.6009 91.0145 94.4511 91.0145 94.3388 91.0145H94.2639C94.189 90.8275 94.1141 90.6779 94.0392 90.491C93.9643 90.304 93.8894 90.117 93.777 89.9301C93.1404 88.5465 92.4288 87.163 91.6423 85.8542C91.6423 85.8168 91.6049 85.7795 91.5674 85.7421C91.4925 85.5925 91.4176 85.4803 91.3053 85.3307C88.9833 81.4793 86.0621 77.9643 82.8039 74.8233C80.7816 72.8789 78.6094 71.0841 76.3249 69.4762C73.4412 67.4195 70.4077 65.6247 67.2243 64.0916C60.2959 60.7636 52.8057 58.6696 45.2407 57.4357C40.372 56.6504 35.466 56.2391 30.5225 56.0895C30.5599 55.9399 30.6348 55.8278 30.7097 55.7156C36.5521 55.9025 42.3569 56.4634 48.0869 57.5478C55.4648 58.9688 62.7302 61.2497 69.3965 64.7647C71.681 65.9612 73.8906 67.3074 76.0253 68.8031C79.0963 70.9345 81.9425 73.365 84.5641 76.0573C87.2606 78.8618 89.6574 81.928 91.6798 85.256C91.7172 85.2933 91.7172 85.3307 91.7547 85.3681C91.8296 85.5177 91.9419 85.6673 92.0168 85.8168C92.8033 87.163 93.5149 88.5465 94.1515 89.9675C94.2264 90.1544 94.3388 90.3414 94.4137 90.5657C94.526 90.6779 94.6384 90.8649 94.7133 91.0145Z" fill="white"/>
<path d="M67.8985 79.1232C61.5319 78.1136 55.2401 76.5805 49.0982 74.6361C46.0272 73.6639 42.9937 72.5795 40.0351 71.3829C37.0764 70.1863 34.1178 68.8028 31.6461 66.7836C30.4476 65.8114 29.3615 64.727 28.4627 63.493C27.5265 62.2591 26.8898 60.8755 26.328 59.4546C26.2531 59.305 25.991 59.305 25.991 59.5294C26.4029 62.2217 28.2006 64.6896 30.148 66.5218C32.4325 68.6906 35.2413 70.2611 38.1251 71.5325C41.1586 72.8786 44.267 74.0004 47.3754 75.0474C50.4839 76.0944 53.6672 77.0292 56.888 77.8145C60.4832 78.7119 64.116 79.4598 67.7862 80.0581C68.3479 80.1329 68.5352 79.198 67.8985 79.1232Z" fill="url(#paint8_linear_50_3922)"/>
<path d="M74.1528 81.2172C73.9656 80.9181 73.5911 80.6937 73.2915 80.5442C73.0293 80.3946 72.7297 80.245 72.4301 80.1328C72.1305 80.0207 71.7934 79.9085 71.4564 79.8711C71.1193 79.7963 70.7448 79.7589 70.4077 79.8711C70.1456 79.9459 70.0707 80.3946 70.3703 80.5068C70.6699 80.6189 71.007 80.6563 71.3066 80.7311C71.5687 80.8059 71.8309 80.8807 72.093 80.9929C72.3552 81.1051 72.6173 81.2172 72.8795 81.3668C72.9919 81.4416 73.1042 81.5164 73.1791 81.5912C73.3289 81.7033 73.4413 81.8529 73.6285 81.9277C73.9656 82.0025 74.3775 81.5538 74.1528 81.2172Z" fill="url(#paint9_linear_50_3922)"/>
<path d="M95.7246 34.4762C95.5374 33.7658 95.1254 33.1301 94.7883 32.4944C94.4513 31.8961 94.0768 31.2604 93.6648 30.6622C92.8783 29.4656 92.0544 28.3064 91.1182 27.1846C89.2831 24.9784 87.2607 22.9966 85.0137 21.2392C80.3697 17.6494 74.9768 15.1067 69.2468 13.8728C65.9886 13.1623 62.6555 12.9379 59.3598 13.1249C59.21 13.1249 59.2474 13.3493 59.3598 13.3493C65.2021 13.3493 71.0445 14.5084 76.3625 16.939C81.4558 19.2573 85.9874 22.7349 89.6201 27.0351C90.6313 28.2316 91.5676 29.503 92.4664 30.8117C92.8783 31.4474 93.2903 32.0831 93.6648 32.7562C94.0768 33.4292 94.3764 34.2145 94.9007 34.8128C95.2377 35.2989 95.8744 34.9997 95.7246 34.4762Z" fill="url(#paint10_linear_50_3922)"/>
<path d="M98.9828 39.5244C98.9453 39.3748 98.8704 39.2626 98.833 39.1131C98.7206 38.8139 98.5708 38.5148 98.3836 38.253C98.2338 37.9913 98.0465 37.7669 97.8593 37.5052C97.7469 37.393 97.6346 37.2434 97.5222 37.1312C97.4099 37.0191 97.2601 36.9443 97.1477 36.8695C96.9979 36.7573 96.8481 36.9069 96.923 37.0565C96.9979 37.1686 97.0354 37.3182 97.1103 37.4678C97.1852 37.58 97.2601 37.7295 97.335 37.8417C97.4848 38.1035 97.6346 38.3652 97.7469 38.627C97.8593 38.8513 97.9716 39.1131 98.0465 39.3748C98.084 39.5244 98.1214 39.6366 98.1589 39.7861C98.1963 39.8609 98.1963 39.9357 98.2338 40.0105C98.2712 40.1601 98.3836 40.2348 98.4959 40.3096C98.6832 40.4218 98.9453 40.3096 99.0203 40.1227C99.1326 39.9357 99.0577 39.7487 98.9828 39.5244Z" fill="url(#paint11_linear_50_3922)"/>
<path d="M55.8393 36.3084C52.8807 33.7283 50.7834 30.1012 49.997 26.2497C49.7723 25.1653 49.6225 24.0061 49.5476 22.9217C49.5476 22.7722 49.3229 22.7722 49.2854 22.9217C48.9483 26.9602 50.4089 31.1856 52.8432 34.4014C53.5548 35.3362 54.3787 36.2336 55.2401 37.0189C55.6521 37.3554 56.2887 36.6823 55.8393 36.3084Z" fill="url(#paint12_linear_50_3922)"/>
<path d="M35.129 42.6653C34.9792 41.1696 36.4023 39.7861 38.3123 39.5991C40.2223 39.3748 41.945 40.4218 42.0949 41.9175C42.2447 43.4132 40.8215 44.7967 38.9115 44.9837C37.0015 45.2081 35.3162 44.1611 35.129 42.6653Z" fill="url(#paint13_linear_50_3922)"/>
<path d="M51.083 43.1889C50.7834 43.7498 49.9969 43.9741 49.3228 43.6002C48.6487 43.2637 48.3116 42.5158 48.6112 41.9549C48.9108 41.394 49.6973 41.1697 50.3714 41.5436C51.0455 41.8427 51.3451 42.5906 51.083 43.1889Z" fill="url(#paint14_linear_50_3922)"/>
<path d="M373.161 146.992C374.209 146.505 374.509 145.01 373.985 143.963C373.46 142.916 372.412 142.243 371.363 141.794C369.64 141.046 367.88 140.747 366.045 140.485C367.73 139.962 369.378 139.401 371.026 138.802C372.112 138.391 373.198 137.98 374.247 137.494C375.37 139.849 377.243 141.869 379.49 143.177C380.351 143.664 381.4 144.075 382.299 143.664C383.347 143.177 383.61 141.682 383.123 140.635C382.636 139.588 381.55 138.915 380.501 138.466C378.703 137.681 376.906 137.382 375.033 137.157C378.292 135.699 381.475 134.054 384.471 132.109C385.969 134.203 388.104 135.886 390.5 136.821C391.437 137.195 392.56 137.419 393.347 136.858C394.321 136.185 394.358 134.689 393.684 133.754C393.01 132.782 391.886 132.296 390.763 132.034C388.928 131.586 387.167 131.548 385.332 131.586C388.441 129.492 391.512 127.061 393.646 123.958C393.684 123.883 393.721 123.808 393.759 123.771C395.556 125.678 397.916 127.024 400.462 127.622C401.436 127.846 402.56 127.921 403.309 127.248C404.17 126.463 403.983 124.967 403.196 124.107C402.41 123.247 401.211 122.948 400.05 122.798C398.028 122.574 396.118 122.873 394.133 123.21C396.53 119.583 398.215 115.469 400.725 111.917C402.522 113.861 404.919 115.282 407.503 115.881C408.477 116.105 409.6 116.18 410.349 115.507C411.211 114.721 411.024 113.226 410.237 112.366C409.451 111.506 408.252 111.207 407.091 111.057C404.994 110.833 403.084 111.132 401.024 111.506C401.661 110.646 402.372 109.786 403.121 109C404.694 107.392 406.567 106.158 408.627 105.224C409.863 107.654 411.847 109.673 414.244 110.945C415.143 111.394 416.192 111.767 417.091 111.319C418.102 110.795 418.326 109.3 417.802 108.253C417.24 107.243 416.192 106.607 415.106 106.196C413.121 105.448 411.136 105.224 409.039 105.074C412.372 103.653 416.154 103.13 419.712 103.391C421.098 105.448 423.045 107.093 425.292 108.103C426.191 108.514 427.315 108.813 428.139 108.29C429.112 107.692 429.262 106.196 428.626 105.186C428.026 104.214 426.903 103.653 425.779 103.279C424.019 102.718 422.296 102.606 420.461 102.569C420.386 102.531 420.349 102.494 420.236 102.494C417.24 102.195 414.169 102.494 411.248 103.317C410.612 103.504 409.975 103.691 409.338 103.915C411.136 102.307 412.447 100.213 413.158 97.8947C413.458 96.9598 413.57 95.8007 412.971 95.0528C412.222 94.1554 410.724 94.2302 409.825 94.978C408.926 95.7259 408.514 96.8851 408.327 98.0442C407.953 100.176 408.14 102.195 408.402 104.326C407.091 104.85 405.855 105.523 404.732 106.345C403.009 107.579 401.623 109.113 400.388 110.795C401.286 108.514 401.549 105.934 401.099 103.504C400.912 102.531 400.537 101.447 399.601 101.073C398.552 100.587 397.242 101.372 396.755 102.419C396.305 103.466 396.455 104.7 396.83 105.822C397.504 107.953 398.627 109.673 399.863 111.506C397.916 114.31 396.38 117.489 394.695 120.443C394.171 121.377 393.609 122.275 393.01 123.135C394.133 120.704 394.47 117.9 393.983 115.245C393.796 114.273 393.422 113.188 392.523 112.777C391.474 112.291 390.163 113.076 389.677 114.123C389.227 115.17 389.377 116.404 389.714 117.526C390.388 119.695 391.549 121.452 392.822 123.359C392.186 124.294 391.474 125.154 390.688 125.977C389.227 127.472 387.617 128.781 385.894 130.015C385.445 130.352 384.995 130.651 384.508 130.95C385.744 128.856 386.343 126.388 386.269 123.958C386.231 122.948 386.006 121.864 385.182 121.303C384.209 120.667 382.786 121.228 382.186 122.2C381.55 123.172 381.55 124.444 381.737 125.565C382.074 127.697 382.86 129.492 383.759 131.436C380.838 133.306 377.73 134.951 374.546 136.335C376.307 134.502 377.58 132.184 378.067 129.679C378.254 128.706 378.292 127.585 377.58 126.874C376.756 126.052 375.295 126.276 374.434 127.099C373.61 127.921 373.311 129.118 373.236 130.277C373.086 132.483 373.46 134.465 373.947 136.634C373.535 136.821 373.086 137.008 372.674 137.157C370.352 138.129 367.955 138.989 365.521 139.7C367.206 137.905 368.404 135.624 368.891 133.194C369.079 132.221 369.116 131.1 368.404 130.389C367.581 129.566 366.12 129.791 365.259 130.613C364.435 131.436 364.135 132.633 364.06 133.792C363.91 135.923 364.285 137.868 364.734 139.962C361.963 140.747 359.117 141.345 356.27 141.719C355.671 141.794 355.821 142.729 356.42 142.654C359.304 142.28 362.188 141.644 364.996 140.859C366.157 143.215 368.03 145.271 370.314 146.58C371.213 146.992 372.262 147.403 373.161 146.992Z" fill="url(#paint15_linear_50_3922)"/>
<path d="M338.593 126.874L347.769 146.393C348.892 144.15 350.241 142.018 351.514 139.887C352.75 137.793 353.986 135.661 354.847 133.38C355.746 131.062 356.12 128.669 356.233 126.201C356.345 123.808 356.308 121.377 356.907 119.022C357.394 117.189 358.255 115.469 359.304 113.899C361.513 110.646 364.435 107.953 366.719 104.775C367.88 103.167 368.854 101.447 369.416 99.5398C370.09 97.2589 370.202 94.8283 370.239 92.4726C370.277 90.1168 370.239 87.7237 370.577 85.3679C370.876 83.3487 371.475 81.4043 372.299 79.572C373.985 75.8701 376.644 72.6918 379.752 70.1116C387.355 63.7549 397.279 61.4365 406.792 59.7912C407.353 59.679 407.915 59.6042 408.477 59.4921C406.567 54.1823 397.316 53.9953 392.335 55.491C388.927 56.5006 386.306 59.2303 383.085 60.7634C366.831 68.5411 353.574 68.4664 355.596 90.7151C355.821 93.2204 356.233 95.7632 355.521 98.1563C351.739 107.991 331.74 112.926 338.593 126.874Z" fill="url(#paint16_linear_50_3922)"/>
<path d="M408.701 60.0529C410.686 68.1672 402.522 71.0838 394.882 74.0753C394.021 74.4118 393.197 74.7483 392.335 75.0849C389.676 76.1693 387.242 77.3658 385.482 78.8615L385.37 78.9737C372.861 89.8551 386.081 93.9309 386.493 102.269C386.231 106.158 382.224 108.439 379.303 111.019C373.423 116.217 368.292 124.78 378.029 129.23C378.441 129.492 379.115 129.604 379.265 130.052C382.935 142.579 348.031 146.879 348.031 146.879C349.866 143.14 352.338 139.737 354.173 135.998C355.184 133.941 356.008 131.735 356.383 129.454C356.757 127.098 356.682 124.668 356.869 122.312C357.057 120.143 357.544 118.049 358.555 116.105C359.454 114.422 360.615 112.852 361.813 111.393C364.21 108.514 366.944 105.822 368.704 102.494C369.678 100.662 370.239 98.6424 370.502 96.5858C370.801 94.23 370.726 91.8743 370.764 89.4811C370.801 87.2376 370.988 85.0314 371.588 82.8626C372.149 80.9182 372.973 79.0859 374.022 77.3658C376.157 73.8509 379.153 70.8969 382.523 68.5411C384.883 66.9332 387.392 65.6245 389.976 64.5401C390.8 64.2035 391.661 63.867 392.485 63.6053C397.691 61.8104 403.234 60.7634 408.664 59.866C408.664 59.9408 408.701 60.0155 408.701 60.0529Z" fill="url(#paint17_linear_50_3922)"/>
<path d="M347.769 146.393L347.994 146.879C349.829 143.14 352.301 139.737 354.136 135.998C355.147 133.941 355.971 131.735 356.345 129.454C356.72 127.098 356.645 124.705 356.832 122.312C357.019 120.143 357.506 118.049 358.517 116.105C359.416 114.422 360.577 112.852 361.776 111.393C364.173 108.514 366.906 105.822 368.667 102.494C369.64 100.662 370.202 98.6423 370.464 96.5857C370.764 94.23 370.689 91.8742 370.726 89.4811C370.764 87.2375 370.951 85.0313 371.55 82.8625C372.112 80.9181 372.936 79.0859 373.985 77.3658C376.119 73.8508 379.115 70.8968 382.486 68.5411C390.163 63.2313 399.564 61.399 408.664 59.8659C408.627 59.7163 408.589 59.5668 408.514 59.4546C407.953 59.5668 407.391 59.6416 406.829 59.7537C397.279 61.4364 387.392 63.7174 379.79 70.0742C376.681 72.6543 374.022 75.8701 372.337 79.5346C371.475 81.3668 370.876 83.3112 370.614 85.3305C370.277 87.6862 370.314 90.0794 370.277 92.4351C370.24 94.7909 370.127 97.2214 369.453 99.5024C368.891 101.409 367.918 103.129 366.757 104.737C364.472 107.916 361.551 110.608 359.341 113.861C358.293 115.432 357.394 117.152 356.945 118.984C356.345 121.34 356.345 123.733 356.27 126.163C356.158 128.631 355.784 131.025 354.885 133.343C354.023 135.624 352.787 137.755 351.552 139.849C350.241 142.018 348.893 144.149 347.769 146.393Z" fill="white"/>
<path d="M380.539 58.0337C381.063 57.2111 382.074 56.6128 382.86 56.0519C383.684 55.4536 384.583 54.9301 385.482 54.444C387.317 53.4718 389.265 52.7613 391.287 52.2752C395.032 51.3778 398.964 51.3404 402.709 52.2005C404.769 52.6866 406.717 53.397 408.552 54.444C408.702 54.5562 408.627 54.818 408.439 54.7058C405.106 53.2101 401.548 52.2752 397.878 52.2005C393.946 52.1257 390.126 53.0979 386.606 54.8553C385.594 55.3788 384.583 55.9397 383.647 56.6128C383.198 56.912 382.786 57.2485 382.336 57.585C381.887 57.959 381.475 58.3703 380.95 58.632C380.613 58.819 380.351 58.3329 380.539 58.0337Z" fill="url(#paint18_linear_50_3922)"/>
<path d="M375.558 60.8757C375.82 60.7261 376.157 60.6139 376.456 60.4643C376.719 60.3522 376.943 60.2026 377.205 60.0904C377.43 59.9782 377.655 59.8287 377.88 59.6791C378.142 59.4921 378.404 59.3051 378.666 59.1556C379.04 58.9686 379.415 59.4921 379.153 59.7913C378.966 60.0156 378.666 60.2026 378.404 60.3895C378.142 60.5765 377.917 60.7261 377.655 60.8757C377.393 61.0252 377.093 61.1748 376.793 61.3244C376.494 61.4739 376.194 61.6235 375.895 61.6609C375.483 61.8105 375.183 61.1 375.558 60.8757Z" fill="url(#paint19_linear_50_3922)"/>
<path d="M383.46 111.73C383.797 111.431 384.209 111.244 384.583 110.982C384.958 110.72 385.332 110.459 385.669 110.159C386.381 109.561 387.017 108.888 387.542 108.14C388.628 106.682 389.414 104.962 389.751 103.167C390.5 99.2408 389.302 95.0528 386.568 92.1361C386.456 92.0239 386.643 91.837 386.755 91.9491C389.152 94.2301 390.538 97.2963 390.725 100.587C390.875 103.728 389.789 106.832 387.804 109.262C387.28 109.898 386.68 110.496 386.044 111.057C385.407 111.58 384.621 112.291 383.797 112.515C383.422 112.59 383.085 112.067 383.46 111.73Z" fill="url(#paint20_linear_50_3922)"/>
<path d="M379.827 114.422C379.939 114.347 380.089 114.273 380.201 114.198C380.239 114.16 380.314 114.123 380.351 114.123C380.389 114.086 380.464 114.086 380.501 114.086C380.501 114.086 380.501 114.086 380.539 114.086C380.576 114.086 380.576 114.048 380.613 114.048C380.651 114.011 380.688 114.011 380.763 113.973C380.838 113.936 380.951 113.899 381.025 113.824C381.1 113.786 381.213 113.712 381.288 113.674C381.362 113.637 381.437 113.599 381.55 113.599C381.587 113.599 381.625 113.562 381.625 113.562C381.887 113.487 382.037 113.786 381.849 113.936L381.812 113.973C381.812 114.011 381.774 114.048 381.737 114.048C381.7 114.086 381.662 114.123 381.625 114.16C381.55 114.235 381.475 114.273 381.362 114.347C381.288 114.422 381.175 114.46 381.1 114.534C381.063 114.572 381.025 114.609 380.988 114.609C380.95 114.609 380.95 114.646 380.913 114.646C380.913 114.646 380.913 114.646 380.876 114.646C380.801 114.721 380.726 114.796 380.613 114.871C380.501 114.946 380.351 115.058 380.239 115.095C380.052 115.17 379.827 115.095 379.752 114.908C379.602 114.759 379.677 114.572 379.827 114.422Z" fill="url(#paint21_linear_50_3922)"/>
<path d="M348.668 62.5581H85.3506V212.728H348.668V62.5581Z" fill="url(#paint22_linear_50_3922)"/>
<path d="M351.065 58.8936H87.7099C85.5378 58.8936 83.7776 60.4641 83.7776 62.4459V218.636C83.7776 220.58 85.5378 222.188 87.7099 222.188H351.065C353.237 222.188 354.997 220.618 354.997 218.636V62.4459C354.997 60.5014 353.237 58.8936 351.065 58.8936ZM348.143 201.286C348.143 203.305 346.271 204.988 343.986 204.988H93.2152C90.9307 204.988 89.0582 203.342 89.0582 201.286V67.1948C89.0582 65.1756 90.9307 63.4929 93.2152 63.4929H343.986C346.271 63.4929 348.143 65.1382 348.143 67.1948V201.286Z" fill="white"/>
<path d="M213.844 212.653C213.844 209.138 216.691 206.334 220.174 206.334C223.694 206.334 226.503 209.176 226.503 212.653C226.503 216.168 223.657 218.973 220.174 218.973C216.691 219.01 213.844 216.168 213.844 212.653Z" fill="white"/>
<path d="M223.806 207.456C224.518 208.465 224.93 209.737 224.93 211.045C224.93 214.56 222.084 217.365 218.601 217.365C217.252 217.365 216.017 216.953 215.005 216.243C216.166 217.888 218.039 218.973 220.211 218.973C223.731 218.973 226.54 216.131 226.54 212.653C226.54 210.522 225.454 208.615 223.806 207.456Z" fill="#DDE1F0"/>
<path d="M248.749 274.426H190.063L198.677 227.087L199.576 222.151H240.809L248.749 274.426Z" fill="white"/>
<path d="M248.749 274.426H241.783C241.783 274.426 238.45 245.821 230.36 236.472C219.687 224.17 198.714 227.087 198.714 227.087L199.613 222.188H240.809L248.749 274.426Z" fill="#E2E2F0"/>
<path d="M286.986 146.019H277.811C276.687 146.019 275.751 145.122 275.751 143.963V120.106C275.751 118.984 276.65 118.049 277.811 118.049H286.986C290.432 118.049 293.203 120.816 293.203 124.257V139.737C293.203 143.215 290.432 146.019 286.986 146.019Z" fill="url(#paint23_radial_50_3922)"/>
<path d="M163.66 147.963H154.485C151.039 147.963 148.268 145.196 148.268 141.756V126.276C148.268 122.835 151.039 120.068 154.485 120.068H163.66C164.784 120.068 165.72 120.966 165.72 122.125V145.982C165.72 147.066 164.784 147.963 163.66 147.963Z" fill="url(#paint24_radial_50_3922)"/>
<path d="M218.339 91.2758L220.361 34.9996L222.196 34.9622L225.08 91.2011L218.339 91.2758Z" fill="white"/>
<path d="M221.447 40.0851C224.55 40.0851 227.065 37.5738 227.065 34.4761C227.065 31.3784 224.55 28.8672 221.447 28.8672C218.344 28.8672 215.829 31.3784 215.829 34.4761C215.829 37.5738 218.344 40.0851 221.447 40.0851Z" fill="url(#paint25_linear_50_3922)"/>
<path d="M239.236 94.9404L204.145 95.09V88.1723C204.145 82.3016 208.901 77.5527 214.781 77.5527H228.638C234.517 77.5527 239.274 82.3016 239.274 88.1723V94.9404H239.236Z" fill="url(#paint26_linear_50_3922)"/>
<path d="M285.825 146.954C285.825 182.29 257.138 189.096 221.709 189.096C186.318 189.096 157.593 182.29 157.593 146.954C157.593 111.618 186.281 82.9373 221.709 82.9373C257.1 82.9373 285.825 111.58 285.825 146.954Z" fill="white"/>
<path d="M247.85 88.5088C266.763 99.6519 279.421 120.181 279.421 143.663C279.421 179 250.734 185.805 215.305 185.805C199.426 185.805 184.857 184.422 173.66 179.71C185.419 187.076 202.572 189.096 221.672 189.096C257.063 189.096 285.788 182.29 285.788 146.954C285.825 120.891 270.208 98.4927 247.85 88.5088Z" fill="#D8DCEB"/>
<path d="M221.709 178.962C249.28 178.962 271.631 163.024 271.631 143.364C271.631 123.704 249.28 107.766 221.709 107.766C194.138 107.766 171.787 123.704 171.787 143.364C171.787 163.024 194.138 178.962 221.709 178.962Z" fill="#001885"/>
<path d="M221.709 174.251C246.674 174.251 266.912 160.422 266.912 143.364C266.912 126.306 246.674 112.478 221.709 112.478C196.744 112.478 176.506 126.306 176.506 143.364C176.506 160.422 196.744 174.251 221.709 174.251Z" fill="url(#paint27_radial_50_3922)"/>
<path d="M208.863 139.438C207.852 139.438 207.028 138.615 207.028 137.606C207.028 133.941 204.07 130.987 200.4 130.987C196.729 130.987 193.771 133.941 193.771 137.606C193.771 138.615 192.947 139.438 191.936 139.438C190.925 139.438 190.101 138.615 190.101 137.606C190.101 131.922 194.744 127.323 200.4 127.323C206.092 127.323 210.699 131.959 210.699 137.606C210.699 138.615 209.875 139.438 208.863 139.438Z" fill="white"/>
<path d="M251.483 139.438C250.471 139.438 249.648 138.615 249.648 137.606C249.648 133.941 246.689 130.987 243.019 130.987C239.349 130.987 236.39 133.941 236.39 137.606C236.39 138.615 235.566 139.438 234.555 139.438C233.544 139.438 232.72 138.615 232.72 137.606C232.72 131.922 237.364 127.323 243.019 127.323C248.711 127.323 253.318 131.959 253.318 137.606C253.318 138.615 252.494 139.438 251.483 139.438Z" fill="white"/>
<path d="M221.035 161.051C215.492 161.051 210.998 157.237 210.998 152.563C210.998 151.553 211.822 150.731 212.833 150.731C213.845 150.731 214.668 151.553 214.668 152.563C214.668 155.218 217.515 157.387 221.035 157.387C224.556 157.387 227.402 155.218 227.402 152.563C227.402 151.553 228.226 150.731 229.237 150.731C230.248 150.731 231.072 151.553 231.072 152.563C231.109 157.237 226.578 161.051 221.035 161.051Z" fill="white"/>
<path d="M325.598 80.0207H287.211C286.949 80.0207 286.724 79.7964 286.724 79.5346V79.1233C286.724 78.8616 286.949 78.6372 287.211 78.6372H325.635C325.898 78.6372 326.122 78.8616 326.122 79.1233V79.5346C326.122 79.7964 325.898 80.0207 325.598 80.0207Z" fill="#999999"/>
<path d="M326.122 85.2932H302.903C302.64 85.2932 302.416 85.0689 302.416 84.8071V84.3958C302.416 84.134 302.64 83.9097 302.903 83.9097H326.122C326.384 83.9097 326.609 84.134 326.609 84.3958V84.8071C326.646 85.0689 326.422 85.2932 326.122 85.2932Z" fill="#999999"/>
<path d="M297.959 85.2932H290.207C289.945 85.2932 289.72 85.0689 289.72 84.8071V84.3958C289.72 84.134 289.945 83.9097 290.207 83.9097H297.959C298.221 83.9097 298.446 84.134 298.446 84.3958V84.8071C298.446 85.0689 298.221 85.2932 297.959 85.2932Z" fill="#999999"/>
<path d="M142.688 168.006H103.701C103.439 168.006 103.215 167.782 103.215 167.52V167.071C103.215 166.81 103.439 166.585 103.701 166.585H142.688C142.95 166.585 143.175 166.81 143.175 167.071V167.52C143.175 167.782 142.95 168.006 142.688 168.006Z" fill="#999999"/>
<path d="M143.212 173.353H119.618C119.356 173.353 119.131 173.129 119.131 172.867V172.418C119.131 172.157 119.356 171.932 119.618 171.932H143.212C143.474 171.932 143.699 172.157 143.699 172.418V172.867C143.699 173.129 143.474 173.353 143.212 173.353Z" fill="#999999"/>
<path d="M114.6 173.353H106.735C106.473 173.353 106.248 173.129 106.248 172.867V172.418C106.248 172.157 106.473 171.932 106.735 171.932H114.6C114.862 171.932 115.086 172.157 115.086 172.418V172.867C115.124 173.129 114.899 173.353 114.6 173.353Z" fill="#999999"/>
<path d="M295.862 177.279H325.598C325.86 177.279 326.085 177.055 326.085 176.793V176.008C326.085 175.746 325.86 175.522 325.598 175.522H295.862C295.6 175.522 295.375 175.746 295.375 176.008V176.793C295.338 177.092 295.562 177.279 295.862 177.279Z" fill="#999999"/>
<path d="M296.012 182.215H306.124C306.386 182.215 306.61 181.991 306.61 181.729V180.944C306.61 180.682 306.386 180.458 306.124 180.458H296.012C295.75 180.458 295.525 180.682 295.525 180.944V181.729C295.525 181.991 295.75 182.215 296.012 182.215Z" fill="#999999"/>
<path d="M266.912 286.542H171.787V283.961C171.787 277.567 176.993 272.37 183.397 272.37H255.265C261.669 272.37 266.875 277.567 266.875 283.961V286.542H266.912Z" fill="white"/>
<path d="M117.708 197.322C116.735 196.724 115.461 196.5 113.888 196.687C113.102 196.2 111.304 195.827 109.319 196.612C108.271 197.023 107.147 197.808 106.173 199.08C105.387 199.828 104.75 200.725 104.189 201.66C103.402 203.006 102.84 204.464 102.466 205.997C102.054 207.643 101.904 209.288 101.829 210.971C101.754 212.728 101.829 214.523 102.466 216.131C102.915 217.29 103.739 218.412 104.863 219.01C105.087 219.16 105.349 219.309 105.649 219.421C106.361 219.721 107.297 219.945 108.346 220.057C108.945 220.132 109.619 220.169 110.33 220.207C112.39 220.281 114.712 220.095 116.884 219.758C116.997 219.758 117.147 219.721 117.259 219.683C117.896 219.571 118.457 219.459 118.982 219.347C120.442 219.047 121.603 218.636 122.727 218.075C122.877 218.001 123.101 217.888 123.326 217.739C124.15 217.253 124.375 216.206 123.925 215.383C121.453 210.709 122.502 200.164 117.708 197.322ZM104.226 218.3C103.664 217.776 103.215 217.14 102.878 216.467C102.129 214.897 102.054 213.139 102.091 211.457C102.129 209.811 102.241 208.204 102.578 206.596C102.878 205.063 103.402 203.567 104.114 202.221C104.6 201.323 105.162 200.501 105.799 199.715C105.275 200.538 104.788 201.51 104.338 202.707C103.327 205.623 101.342 213.999 104.226 218.3Z" fill="#1F1C80"/>
<path d="M99.4322 266.798C99.4322 266.798 83.7777 269.116 84.0399 268.967C84.302 268.817 112.727 283.363 112.727 283.363L140.703 270.837L126.809 266.798H99.4322Z" fill="url(#paint28_linear_50_3922)"/>
<path d="M104.076 286.28C104.001 286.28 103.926 286.28 103.851 286.28C103.814 286.28 103.776 286.28 103.702 286.28C99.8441 286.093 97.3349 285.869 97.3349 285.869C97.3349 285.869 97.1477 285.906 96.8106 285.943C93.4775 286.429 75.5385 288.823 77.411 282.241C79.0589 276.446 89.6575 277.792 93.9269 278.54H93.9643C95.013 278.727 95.6871 278.876 95.6871 278.876C95.6871 278.876 97.8592 278.091 101.267 276.969C101.417 276.932 101.567 276.857 101.679 276.819C112.952 273.155 136.546 266.387 142.276 271.584C142.351 271.622 142.388 271.697 142.463 271.771C142.538 271.846 142.576 271.884 142.65 271.958C142.688 271.996 142.763 272.071 142.8 272.145C142.8 272.145 142.838 272.183 142.838 272.22C142.913 272.295 142.95 272.407 143.025 272.482C143.1 272.594 143.137 272.669 143.175 272.781C143.212 272.893 143.25 272.968 143.287 273.08C143.362 273.305 143.437 273.529 143.474 273.791C143.512 274.052 143.549 274.277 143.549 274.539C143.587 274.987 143.587 275.399 143.549 275.81C142.501 286.579 116.622 286.803 104.076 286.28Z" fill="#F1CCCD"/>
<path d="M104.189 287.551L103.814 286.28L103.664 285.719L101.23 277.007L100.893 275.773C112.166 272.108 136.434 266.2 142.276 271.622C142.351 271.697 142.388 271.734 142.463 271.809C142.538 271.884 142.576 271.921 142.651 271.996C142.688 272.033 142.763 272.108 142.8 272.183C142.8 272.183 142.838 272.22 142.838 272.258C142.913 272.332 142.95 272.445 143.025 272.519C143.1 272.632 143.137 272.706 143.175 272.819C143.212 272.931 143.25 273.006 143.287 273.118C143.362 273.342 143.437 273.566 143.474 273.828C143.512 274.09 143.549 274.314 143.549 274.576C143.587 275.025 143.587 275.436 143.549 275.847C142.538 286.729 116.772 288.075 104.189 287.551Z" fill="url(#paint29_linear_50_3922)"/>
<path d="M95.6872 278.914C95.6872 278.914 75.8382 273.866 74.49 282.316C73.0294 291.365 97.3724 285.906 97.3724 285.906C97.3724 285.906 85.6129 287.29 86.3244 282.129C86.9986 277.119 95.6872 278.914 95.6872 278.914Z" fill="#1F1C80"/>
<path d="M104.189 287.551L103.814 286.28C103.777 286.28 103.739 286.28 103.664 286.28C103.664 285.981 103.664 285.757 103.664 285.719C103.664 285.719 122.764 286.168 136.022 281.382C142.426 279.063 142.389 271.996 142.276 271.659C142.351 271.734 142.389 271.772 142.463 271.846C142.538 271.921 142.576 271.959 142.651 272.033C142.688 272.071 142.763 272.146 142.8 272.22C142.8 272.22 142.838 272.258 142.838 272.295C142.913 272.37 142.95 272.482 143.025 272.557C143.1 272.669 143.138 272.744 143.175 272.856C143.212 272.968 143.25 273.043 143.287 273.155C143.362 273.379 143.437 273.604 143.475 273.866C143.512 274.127 143.55 274.352 143.55 274.613C143.587 275.062 143.587 275.473 143.55 275.885C142.538 286.729 116.772 288.075 104.189 287.551Z" fill="#CCCCCC"/>
<path d="M127.258 245.409C123.176 251.131 126.846 266.798 126.846 266.798H99.4696C100.219 265.714 102.353 252.215 97.5596 244.811C89.8073 232.808 98.1589 223.497 98.1589 223.497L109.544 221.441L110.255 217.814L110.742 215.308L110.855 214.747H115.985L116.173 215.832L116.585 218.187L117.184 221.702L127.67 223.983C127.633 223.909 136.621 232.322 127.258 245.409Z" fill="#F1CCCD"/>
<path d="M99.4322 266.798C100.069 265.901 101.717 255.954 99.2075 248.438C104.6 246.868 103.702 261.825 112.69 266.798H99.4322Z" fill="#C4626E"/>
<path d="M142.164 257.301C141.864 259.058 140.628 261.002 138.793 262.909C134.074 267.771 124.412 267.546 117.821 269.304L117.146 265.789C117.146 265.789 128.944 262.461 131.49 258.348C131.752 257.899 131.94 257.487 132.014 257.114C132.876 253 128.082 247.84 128.082 247.84L127.558 223.946C127.558 223.909 143.587 248.289 142.164 257.301Z" fill="#F1CCCD"/>
<path d="M109.057 265.826L109.169 268.182C109.394 268.107 109.357 267.808 109.132 267.77C103.252 266.537 93.5524 268.219 88.8336 264.256C85.9124 261.788 84.3395 258.759 83.965 256.403C82.5418 247.391 98.1589 223.497 98.1589 223.497L97.5971 247.391C97.5971 247.391 92.8034 252.552 93.6648 256.665C93.8146 257.413 94.4138 258.31 95.2377 259.282C98.833 263.396 109.057 265.826 109.057 265.826Z" fill="#F1CCCD"/>
<path d="M136.733 236.174C133.7 229.966 130.142 224.806 127.633 223.909H127.595C127.408 223.834 127.183 223.796 126.996 223.796L117.146 221.665C116.884 228.433 108.683 227.162 109.506 221.403L98.6457 223.385C98.4959 223.385 98.3086 223.423 98.1588 223.46H98.1214C95.0129 224.47 89.7324 232.846 86.3618 241.296C86.3618 241.296 86.3618 241.296 86.3618 241.334C84.0024 247.279 82.5792 253.299 83.5904 256.814C84.2271 259.095 85.9498 262.236 88.8335 264.704L90.8184 263.059L95.762 258.946C94.9006 257.974 93.9269 257.301 93.7771 256.59C93.1404 253.524 97.1851 249.971 99.2823 248.401C101.792 255.917 100.144 265.826 99.5071 266.761H126.884C126.884 266.761 123.962 254.272 126.247 247.541C128.382 249.523 132.464 253.86 131.827 256.964C131.752 257.338 131.602 257.787 131.34 258.198L136.658 261.638L138.681 262.947C138.905 263.096 139.205 263.059 139.355 262.872C141.003 261.04 142.014 258.946 142.313 257.3C143.175 252.552 140.366 243.652 136.733 236.174Z" fill="url(#paint30_linear_50_3922)"/>
<path d="M132.277 245.671V268.107C132.277 269.304 131.303 270.313 130.067 270.313H95.6122C94.4138 270.313 93.4026 269.341 93.4026 268.107V245.671C93.4026 244.475 94.3763 243.465 95.6122 243.465H130.067C131.303 243.502 132.277 244.475 132.277 245.671Z" fill="white"/>
<path d="M115.299 259.325C116.645 257.982 116.645 255.804 115.299 254.46C113.954 253.117 111.772 253.117 110.427 254.46C109.081 255.804 109.081 257.982 110.427 259.325C111.772 260.669 113.954 260.669 115.299 259.325Z" fill="#E2E2F0"/>
<path d="M116.585 218.15C115.911 218.524 115.124 219.197 113.963 219.234C112.315 219.272 110.256 217.776 110.256 217.776L110.742 215.271H112.54L115.611 215.458L116.173 215.794L116.585 218.15Z" fill="#CCCCCC"/>
<path d="M132.277 245.671V268.107C132.277 269.304 131.303 270.313 130.067 270.313H95.6122C94.4138 270.313 93.4026 269.341 93.4026 268.107C128.232 269.715 132.239 264.592 130.03 243.465C131.303 243.502 132.277 244.475 132.277 245.671Z" fill="#E2E2F0"/>
<path d="M90.7811 263.096L88.7962 264.742C85.8751 262.274 84.1898 259.133 83.5531 256.852C82.5794 253.337 83.9651 247.354 86.3245 241.371C86.0998 242.082 83.0288 250.682 85.2009 255.917C87.1484 260.554 90.0696 262.386 90.7811 263.096Z" fill="#999999"/>
<path d="M144.823 282.914C146.471 289.57 128.644 286.542 125.311 285.906C124.974 285.831 124.787 285.794 124.787 285.794C124.787 285.794 122.202 285.943 118.27 285.981C118.195 285.981 118.12 285.981 118.045 285.981C112.315 286.018 103.889 285.794 96.2864 284.522C86.9611 282.989 78.9841 279.848 78.9092 273.716V273.678C78.9092 273.417 78.9092 273.192 78.9466 272.931C78.9841 272.669 79.0215 272.407 79.059 272.108C79.0964 271.846 79.1713 271.622 79.2837 271.397C79.3211 271.285 79.3586 271.21 79.4335 271.098C79.4709 270.986 79.5458 270.911 79.6208 270.799C79.6957 270.724 79.7331 270.612 79.808 270.537C79.808 270.5 79.8455 270.5 79.8455 270.463C79.8829 270.388 79.9578 270.35 79.9953 270.276C80.0702 270.201 80.1076 270.163 80.1825 270.089C80.8941 269.416 81.9053 268.967 83.1411 268.668C91.605 266.686 110.967 273.043 120.779 276.632C120.929 276.67 121.079 276.745 121.191 276.782C124.562 278.016 126.697 278.876 126.697 278.876C126.697 278.876 127.333 278.726 128.419 278.577H128.457C132.726 278.016 143.362 277.081 144.823 282.914Z" fill="#F1CCCD"/>
<path d="M121.566 275.585L121.191 276.819L118.27 285.981L117.858 287.252C112.69 287.289 105.275 286.915 98.3087 285.719C88.1596 283.961 78.9466 280.409 78.9092 273.753V273.716C78.9092 273.454 78.9092 273.192 78.9466 272.968C78.9841 272.706 79.0215 272.444 79.059 272.145C79.0964 271.884 79.1713 271.659 79.2837 271.435C79.3211 271.323 79.3586 271.248 79.4335 271.136C79.4709 271.023 79.5458 270.949 79.6208 270.837C79.6957 270.762 79.7331 270.65 79.808 270.575C79.808 270.537 79.8455 270.537 79.8455 270.5C79.8829 270.425 79.9578 270.388 79.9953 270.313C80.0702 270.238 80.1076 270.201 80.1825 270.126C80.9315 269.416 81.9802 268.892 83.2535 268.556C91.9795 266.349 111.791 272.033 121.566 275.585Z" fill="url(#paint31_linear_50_3922)"/>
<path d="M126.697 278.951C126.697 278.951 146.733 274.65 147.781 283.101C148.905 292.188 124.787 285.831 124.787 285.831C124.787 285.831 136.509 287.626 135.947 282.466C135.46 277.492 126.697 278.951 126.697 278.951Z" fill="#1F1C80"/>
<path d="M98.3087 285.719C88.1596 283.962 78.9466 280.409 78.9092 273.753V273.716C78.9092 273.454 78.9092 273.23 78.9466 272.968C78.9841 272.706 79.0215 272.445 79.059 272.145C79.0964 271.884 79.1713 271.659 79.2837 271.435C79.3211 271.323 79.3586 271.248 79.4335 271.136C79.4709 271.024 79.5458 270.949 79.6208 270.837C79.6957 270.762 79.7331 270.65 79.808 270.575C79.808 270.537 79.8455 270.537 79.8455 270.5C79.8829 270.425 79.9578 270.388 79.9953 270.313C80.0702 270.238 80.1076 270.201 80.1825 270.126C80.9315 269.416 81.9802 268.892 83.2535 268.556C83.2535 268.556 83.1786 268.63 83.1037 268.668C82.4296 269.304 80.969 271.659 81.4933 274.613C82.4296 280.035 92.1668 282.167 96.2864 284.56C97.4848 285.233 98.2338 285.682 98.3087 285.719Z" fill="#999999"/>
<path d="M142.314 257.3C142.014 258.983 141.003 261.077 139.355 262.872C139.168 263.059 138.905 263.096 138.681 262.947L136.658 261.638C137.707 259.806 139.28 258.31 140.029 255.468C142.014 247.803 137.033 236.809 136.733 236.173C140.366 243.652 143.175 252.551 142.314 257.3Z" fill="#CCCCCC"/>
<path d="M119.356 211.793C118.457 216.243 115.911 218.15 113.401 218.001C110.031 217.814 106.81 211.457 106.81 211.457C106.81 211.457 103.739 209.924 104.376 208.615C105.2 206.895 105.799 207.867 107.859 207.643C109.282 207.493 108.008 201.361 113.589 200.501C118.495 200.351 118.045 204.277 119.581 206.409C119.805 208.503 119.693 210.298 119.356 211.793Z" fill="#F1CCCD"/>
<path d="M119.993 208.241C119.768 208.054 119.581 207.867 119.431 207.68C119.356 207.605 119.319 207.53 119.244 207.418C119.169 207.306 119.131 207.231 119.057 207.119C118.72 206.521 118.495 205.848 118.195 205.212C117.971 204.651 117.671 204.128 117.259 203.679C116.847 203.193 116.323 202.856 115.798 202.557C115.349 202.333 114.862 202.108 114.375 201.959C116.81 202.034 118.233 204.277 119.094 206.147C119.319 206.633 119.469 207.082 119.618 207.456C119.618 207.456 119.319 200.201 115.087 199.379C114.825 199.341 114.525 199.267 114.263 199.267C114.038 199.229 113.813 199.229 113.589 199.192C110.256 199.005 108.533 200.65 107.634 202.669C106.698 204.801 106.698 207.343 106.81 208.69C106.81 208.914 106.848 209.138 106.848 209.288C106.885 209.512 106.885 209.624 106.885 209.624C106.885 209.624 106.96 209.587 107.11 209.55C107.11 209.55 107.11 209.55 107.147 209.55C107.185 209.512 107.26 209.512 107.297 209.475C107.672 209.325 108.271 209.063 108.945 208.69L108.982 208.727C109.282 208.69 109.619 208.615 109.881 208.503C110.181 208.39 110.443 208.278 110.742 208.129C111.304 207.829 111.829 207.493 112.278 207.044C113.102 206.222 113.701 205.1 113.926 203.941C113.926 203.903 113.963 203.828 113.963 203.791C114.076 203.193 114.076 202.632 114.001 202.071C114.001 202.034 114.001 201.996 114.001 201.959C114.038 201.959 114.076 201.959 114.113 201.959C115.199 202.333 116.285 202.819 117.072 203.716C117.746 204.502 118.045 205.511 118.42 206.483C118.495 206.633 118.57 206.783 118.645 206.969C118.832 207.381 119.094 207.792 119.394 208.091C119.431 208.129 119.431 208.129 119.469 208.166C119.581 208.278 119.693 208.353 119.806 208.428C119.993 208.503 120.105 208.316 119.993 208.241ZM113.851 203.903C113.739 204.389 113.589 204.838 113.364 205.249C112.84 206.334 111.941 207.269 110.93 207.867C110.63 208.054 110.331 208.203 110.031 208.316C109.769 208.428 109.469 208.503 109.17 208.577C110.705 207.68 112.615 206.147 113.551 203.791C113.739 203.342 113.888 202.819 114.001 202.295C114.038 202.856 113.963 203.38 113.851 203.903Z" fill="#1F1C80"/>
<path d="M63.7789 197.584C63.7039 197.584 63.7039 197.696 63.7789 197.696C63.854 197.696 63.854 197.584 63.7789 197.584Z" fill="#30334D"/>
<path d="M88.1219 174.139C82.8413 170.138 75.9129 168.492 69.3215 169.016C65.0521 169.39 60.7827 170.661 57.2623 173.129C53.7794 175.634 51.1204 179.448 50.5212 183.711C49.922 187.974 51.5323 192.573 55.0153 195.116C58.648 197.808 63.629 197.921 68.1231 197.247C73.8156 196.425 79.3209 194.518 85.0134 193.733C87.3728 193.396 89.8446 193.284 92.0168 194.256C94.1889 195.228 95.9117 196.35 96.6232 199.491C100.144 185.992 93.4399 178.14 88.1219 174.139Z" fill="url(#paint32_linear_50_3922)"/>
<path d="M56.5134 183.524C56.5134 182.403 57.4122 181.468 58.5732 181.468C59.6968 181.468 60.633 182.365 60.633 183.524C60.633 184.646 59.7342 185.581 58.5732 185.581C57.4497 185.581 56.5134 184.646 56.5134 183.524Z" fill="white"/>
<path d="M64.7524 183.524C64.7524 182.403 65.6513 181.468 66.8122 181.468C67.9358 181.468 68.872 182.365 68.872 183.524C68.872 184.646 67.9732 185.581 66.8122 185.581C65.6887 185.581 64.7524 184.646 64.7524 183.524Z" fill="white"/>
<path d="M73.0291 183.524C73.0291 182.403 73.9279 181.468 75.0889 181.468C76.2124 181.468 77.1487 182.365 77.1487 183.524C77.1487 184.646 76.2498 185.581 75.0889 185.581C73.9279 185.581 73.0291 184.646 73.0291 183.524Z" fill="white"/>
<path d="M81.2683 183.524C81.2683 182.403 82.1671 181.468 83.3281 181.468C84.4516 181.468 85.3879 182.365 85.3879 183.524C85.3879 184.646 84.4891 185.581 83.3281 185.581C82.1671 185.581 81.2683 184.646 81.2683 183.524Z" fill="white"/>
<path d="M78.6093 197.659C78.0476 197.771 77.5607 198.033 77.0364 198.257C76.5121 198.444 75.9878 198.631 75.426 198.818C74.3399 199.192 73.2913 199.528 72.1678 199.828C69.9956 200.388 67.7486 200.725 65.5015 200.762C61.5317 200.837 57.5619 199.94 54.1164 197.883C52.2813 196.761 50.5586 195.303 49.2478 193.583C49.1729 193.508 49.0606 193.583 49.098 193.658C50.1466 195.303 51.4574 196.687 53.0304 197.846C54.6407 199.005 56.4009 199.902 58.2735 200.575C62.5054 202.034 67.037 201.996 71.3813 201.024C72.6546 200.725 73.928 200.388 75.1638 199.94C75.763 199.715 76.3623 199.454 76.9615 199.192C77.5607 198.93 78.2348 198.668 78.7591 198.257C79.0587 197.995 78.9464 197.584 78.6093 197.659Z" fill="url(#paint33_linear_50_3922)"/>
<path d="M99.2823 183.711C98.758 181.505 97.7468 179.448 96.3611 177.691C95.687 176.794 94.8631 175.971 94.0017 175.26C93.5897 174.924 93.1778 174.587 92.7284 174.288C92.279 173.989 91.7546 173.652 91.2678 173.503C91.1554 173.466 91.0431 173.615 91.1554 173.727C91.5299 174.064 92.0168 174.326 92.4288 174.662C92.8782 174.999 93.3276 175.335 93.7395 175.746C94.526 176.457 95.2376 177.28 95.8742 178.14C97.1476 179.897 98.0464 181.879 98.5333 183.973C98.6082 184.459 99.3946 184.235 99.2823 183.711Z" fill="url(#paint34_linear_50_3922)"/>
<path d="M83.7026 196.275C83.4779 196.163 83.1409 196.201 82.8787 196.201C82.6166 196.238 82.3544 196.275 82.1297 196.313C81.905 196.388 81.6428 196.462 81.4181 196.574C81.1934 196.687 80.8938 196.799 80.744 197.023C80.6317 197.21 80.7815 197.547 81.0062 197.509C81.0811 197.509 81.156 197.472 81.2683 197.435C81.3058 197.397 81.3807 197.397 81.4181 197.36C81.493 197.322 81.5679 197.285 81.6428 197.248C81.8675 197.173 82.0548 197.098 82.2795 197.023C82.3919 196.986 82.5042 196.986 82.5791 196.948C82.6915 196.911 82.7289 196.911 82.8413 196.911C82.9536 196.911 83.066 196.911 83.1783 196.911C83.3281 196.911 83.4405 196.948 83.5903 196.874C83.7401 196.836 83.8524 196.724 83.8524 196.574C83.8899 196.5 83.8524 196.35 83.7026 196.275Z" fill="url(#paint35_linear_50_3922)"/>
<path d="M128.232 115.993H78.1601C76.6246 115.993 75.3513 117.339 75.3513 119.021V153.049C75.3513 154.732 76.5872 156.078 78.1601 156.078H128.269C129.805 156.078 131.078 154.732 131.078 153.049V119.021C131.041 117.339 129.805 115.993 128.232 115.993ZM130.292 152.787C130.292 154.246 129.056 155.442 127.558 155.442H78.8717C77.3737 155.442 76.1378 154.246 76.1378 152.787V122.873C76.1378 121.415 77.3737 120.218 78.8717 120.218H127.558C129.056 120.218 130.292 121.415 130.292 122.873V152.787Z" fill="url(#paint36_linear_50_3922)"/>
<path d="M130.292 122.873V152.787C130.292 154.246 129.056 155.442 127.558 155.442H78.8716C77.3736 155.442 76.1377 154.246 76.1377 152.787V122.873C76.1377 121.415 77.3736 120.218 78.8716 120.218H127.558C129.056 120.218 130.292 121.377 130.292 122.873Z" fill="#B3B3B3"/>
<path d="M85.5753 118.161C85.5753 117.9 85.3506 117.675 85.1259 117.675C84.8638 117.675 84.6765 117.9 84.6765 118.161C84.6765 118.423 84.9012 118.647 85.1259 118.647C85.3881 118.647 85.5753 118.423 85.5753 118.161Z" fill="white"/>
<path d="M83.216 118.161C83.216 117.9 82.9913 117.675 82.7665 117.675C82.5044 117.675 82.3171 117.9 82.3171 118.161C82.3171 118.423 82.5418 118.647 82.7665 118.647C82.9913 118.647 83.216 118.423 83.216 118.161Z" fill="white"/>
<path d="M80.8566 118.161C80.8566 117.9 80.6319 117.675 80.4072 117.675C80.145 117.675 79.9578 117.9 79.9578 118.161C79.9578 118.423 80.1825 118.647 80.4072 118.647C80.6319 118.647 80.8566 118.423 80.8566 118.161Z" fill="white"/>
<path d="M115.648 118.647H126.397C126.659 118.647 126.884 118.423 126.884 118.161C126.884 117.9 126.659 117.675 126.397 117.675H115.648C115.386 117.675 115.162 117.9 115.162 118.161C115.124 118.423 115.349 118.647 115.648 118.647Z" fill="white"/>
<path d="M97.747 131.511C97.8219 131.586 97.8593 131.623 97.9342 131.698L99.9566 129.679C99.8817 129.604 99.8442 129.566 99.7693 129.492C97.4474 127.173 94.2641 125.939 90.9684 126.089L91.4552 128.931C93.8146 128.893 96.0992 129.828 97.747 131.511ZM97.747 131.511C97.8219 131.586 97.8593 131.623 97.9342 131.698L99.9566 129.679C99.8817 129.604 99.8442 129.566 99.7693 129.492C97.4474 127.173 94.2641 125.939 90.9684 126.089L91.4552 128.931C93.8146 128.893 96.0992 129.828 97.747 131.511ZM101.979 143.028C102.99 140.971 103.402 138.728 103.14 136.447C102.878 134.128 101.941 131.997 100.443 130.239L98.4211 132.259C100.556 134.951 100.968 138.653 99.4323 141.756L101.979 143.028ZM101.979 143.028C102.99 140.971 103.402 138.728 103.14 136.447C102.878 134.128 101.941 131.997 100.443 130.239L98.4211 132.259C100.556 134.951 100.968 138.653 99.4323 141.756L101.979 143.028ZM87.7851 149.011C89.3954 149.534 91.1182 149.684 92.8035 149.497L92.5039 146.655C89.77 146.991 87.036 146.057 85.0886 144.112C84.5643 143.589 84.1149 142.99 83.7404 142.355L81.0439 143.402C81.5682 144.411 82.2798 145.309 83.0662 146.131C84.4145 147.478 85.9874 148.45 87.7851 149.011ZM87.7851 149.011C89.3954 149.534 91.1182 149.684 92.8035 149.497L92.5039 146.655C89.77 146.991 87.036 146.057 85.0886 144.112C84.5643 143.589 84.1149 142.99 83.7404 142.355L81.0439 143.402C81.5682 144.411 82.2798 145.309 83.0662 146.131C84.4145 147.478 85.9874 148.45 87.7851 149.011ZM83.3659 141.756C81.7555 138.466 82.3547 134.465 84.8639 131.773L82.8415 129.753C81.1937 131.511 80.1451 133.642 79.7706 136.035C79.3961 138.354 79.7331 140.709 80.7068 142.803L83.3659 141.756ZM83.3659 141.756C81.7555 138.466 82.3547 134.465 84.8639 131.773L82.8415 129.753C81.1937 131.511 80.1451 133.642 79.7706 136.035C79.3961 138.354 79.7331 140.709 80.7068 142.803L83.3659 141.756ZM99.7319 146.131C99.7693 146.094 99.8068 146.057 99.8442 146.019C100.556 145.309 101.118 144.524 101.642 143.663L99.0952 142.392C98.8331 142.878 98.496 143.29 98.1215 143.701C98.0092 143.85 97.8593 144 97.7095 144.15C96.4737 145.384 94.9007 146.244 93.178 146.58L93.4776 149.422C95.837 148.973 98.0091 147.851 99.7319 146.131ZM99.7319 146.131C99.7693 146.094 99.8068 146.057 99.8442 146.019C100.556 145.309 101.118 144.524 101.642 143.663L99.0952 142.392C98.8331 142.878 98.496 143.29 98.1215 143.701C98.0092 143.85 97.8593 144 97.7095 144.15C96.4737 145.384 94.9007 146.244 93.178 146.58L93.4776 149.422C95.837 148.973 98.0091 147.851 99.7319 146.131Z" fill="url(#paint37_linear_50_3922)"/>
<path d="M127.483 128.37H106.136C106.024 128.37 105.911 128.258 105.911 128.145V127.996C105.911 127.884 106.024 127.771 106.136 127.771H127.483C127.595 127.771 127.708 127.884 127.708 127.996V128.145C127.708 128.258 127.595 128.37 127.483 128.37Z" fill="url(#paint38_linear_50_3922)"/>
<path d="M120.592 132.296H106.098C105.986 132.296 105.874 132.184 105.874 132.072V131.922C105.874 131.81 105.986 131.698 106.098 131.698H120.592C120.704 131.698 120.817 131.81 120.817 131.922V132.072C120.854 132.184 120.742 132.296 120.592 132.296Z" fill="url(#paint39_linear_50_3922)"/>
<path d="M127.183 132.296H122.539C122.427 132.296 122.315 132.184 122.315 132.072V131.922C122.315 131.81 122.427 131.698 122.539 131.698H127.183C127.296 131.698 127.408 131.81 127.408 131.922V132.072C127.408 132.184 127.333 132.296 127.183 132.296Z" fill="url(#paint40_linear_50_3922)"/>
<path d="M127.483 137.381H106.136C106.024 137.381 105.911 137.269 105.911 137.157V137.008C105.911 136.895 106.024 136.783 106.136 136.783H127.483C127.595 136.783 127.708 136.895 127.708 137.008V137.157C127.708 137.269 127.595 137.381 127.483 137.381Z" fill="url(#paint41_linear_50_3922)"/>
<path d="M120.592 141.308H106.098C105.986 141.308 105.874 141.196 105.874 141.083V140.934C105.874 140.822 105.986 140.709 106.098 140.709H120.592C120.704 140.709 120.817 140.822 120.817 140.934V141.083C120.854 141.196 120.742 141.308 120.592 141.308Z" fill="url(#paint42_linear_50_3922)"/>
<path d="M127.183 141.308H122.539C122.427 141.308 122.315 141.196 122.315 141.083V140.934C122.315 140.822 122.427 140.709 122.539 140.709H127.183C127.296 140.709 127.408 140.822 127.408 140.934V141.083C127.408 141.196 127.333 141.308 127.183 141.308Z" fill="url(#paint43_linear_50_3922)"/>
<path d="M380.801 190.741H310.318C308.146 190.741 306.386 192.648 306.386 194.966V242.829C306.386 245.185 308.146 247.055 310.318 247.055H380.801C382.973 247.055 384.733 245.148 384.733 242.829V194.966C384.77 192.611 383.01 190.741 380.801 190.741ZM383.684 242.493C383.684 244.549 381.962 246.232 379.864 246.232H311.329C309.195 246.232 307.509 244.549 307.509 242.493V200.388C307.509 198.332 309.232 196.649 311.329 196.649H379.864C381.999 196.649 383.684 198.332 383.684 200.388V242.493Z" fill="url(#paint44_linear_50_3922)"/>
<path d="M383.684 200.388V242.493C383.684 244.549 381.962 246.232 379.864 246.232H311.329C309.195 246.232 307.509 244.549 307.509 242.493V200.388C307.509 198.332 309.232 196.649 311.329 196.649H379.864C381.962 196.649 383.684 198.332 383.684 200.388Z" fill="#B3B3B3"/>
<path d="M320.767 193.77C320.767 193.396 320.467 193.059 320.093 193.059C319.718 193.059 319.419 193.358 319.419 193.77C319.419 194.144 319.718 194.48 320.093 194.48C320.467 194.48 320.767 194.181 320.767 193.77Z" fill="white"/>
<path d="M317.434 193.77C317.434 193.396 317.134 193.059 316.76 193.059C316.385 193.059 316.085 193.358 316.085 193.77C316.085 194.144 316.385 194.48 316.76 194.48C317.134 194.48 317.434 194.181 317.434 193.77Z" fill="white"/>
<path d="M314.101 193.77C314.101 193.396 313.801 193.059 313.427 193.059C313.052 193.059 312.752 193.358 312.752 193.77C312.752 194.144 313.052 194.48 313.427 194.48C313.801 194.48 314.101 194.181 314.101 193.77Z" fill="white"/>
<path d="M363.086 194.48H378.217C378.591 194.48 378.928 194.181 378.928 193.77C378.928 193.396 378.628 193.059 378.217 193.059H363.086C362.712 193.059 362.375 193.358 362.375 193.77C362.375 194.181 362.674 194.48 363.086 194.48Z" fill="white"/>
<path d="M379.827 208.129H349.567C349.454 208.129 349.342 208.017 349.342 207.904V207.531C349.342 207.418 349.454 207.306 349.567 207.306H379.827C379.939 207.306 380.052 207.418 380.052 207.531V207.904C380.052 208.054 379.939 208.129 379.827 208.129Z" fill="url(#paint45_linear_50_3922)"/>
<path d="M370.165 213.663H349.567C349.454 213.663 349.342 213.551 349.342 213.439V213.065C349.342 212.953 349.454 212.84 349.567 212.84H370.165C370.277 212.84 370.389 212.953 370.389 213.065V213.439C370.389 213.551 370.277 213.663 370.165 213.663Z" fill="url(#paint46_linear_50_3922)"/>
<path d="M379.415 213.663H372.674C372.561 213.663 372.449 213.551 372.449 213.439V213.065C372.449 212.953 372.561 212.84 372.674 212.84H379.415C379.527 212.84 379.64 212.953 379.64 213.065V213.439C379.64 213.551 379.565 213.663 379.415 213.663Z" fill="url(#paint47_linear_50_3922)"/>
<path d="M345.522 208.129H315.262C315.149 208.129 315.037 208.017 315.037 207.904V207.531C315.037 207.418 315.149 207.306 315.262 207.306H345.522C345.634 207.306 345.747 207.418 345.747 207.531V207.904C345.784 208.054 345.672 208.129 345.522 208.129Z" fill="url(#paint48_linear_50_3922)"/>
<path d="M335.86 213.663H315.262C315.149 213.663 315.037 213.551 315.037 213.439V213.065C315.037 212.953 315.149 212.84 315.262 212.84H335.86C335.972 212.84 336.084 212.953 336.084 213.065V213.439C336.122 213.551 336.009 213.663 335.86 213.663Z" fill="url(#paint49_linear_50_3922)"/>
<path d="M345.147 213.663H338.406C338.294 213.663 338.181 213.551 338.181 213.439V213.065C338.181 212.953 338.294 212.84 338.406 212.84H345.147C345.26 212.84 345.372 212.953 345.372 213.065V213.439C345.372 213.551 345.26 213.663 345.147 213.663Z" fill="url(#paint50_linear_50_3922)"/>
<path d="M379.827 230.116H349.567C349.454 230.116 349.342 230.003 349.342 229.891V229.517C349.342 229.405 349.454 229.293 349.567 229.293H379.827C379.939 229.293 380.052 229.405 380.052 229.517V229.891C380.052 230.003 379.939 230.116 379.827 230.116Z" fill="url(#paint51_linear_50_3922)"/>
<path d="M370.165 235.65H349.567C349.454 235.65 349.342 235.538 349.342 235.425V235.051C349.342 234.939 349.454 234.827 349.567 234.827H370.165C370.277 234.827 370.389 234.939 370.389 235.051V235.425C370.389 235.538 370.277 235.65 370.165 235.65Z" fill="url(#paint52_linear_50_3922)"/>
<path d="M379.415 235.65H372.674C372.561 235.65 372.449 235.538 372.449 235.425V235.051C372.449 234.939 372.561 234.827 372.674 234.827H379.415C379.527 234.827 379.64 234.939 379.64 235.051V235.425C379.64 235.538 379.565 235.65 379.415 235.65Z" fill="url(#paint53_linear_50_3922)"/>
<path d="M337.957 226.863L335.373 225.666L335.41 227.386H320.28V228.807H335.41L335.448 230.527L337.994 229.293L340.541 228.059L337.957 226.863Z" fill="url(#paint54_linear_50_3922)"/>
<path d="M319.344 233.519L321.928 232.322V234.042H337.058V235.463H321.89V237.183L319.344 235.949L316.76 234.715L319.344 233.519Z" fill="url(#paint55_linear_50_3922)"/>
<path d="M278.522 287.963L293.652 282.167C293.915 282.055 294.064 281.868 294.102 281.606L294.664 277.979L352.413 287.215C354.81 287.589 357.094 285.981 357.469 283.55C357.843 281.157 356.233 278.876 353.799 278.502L296.012 269.266L296.574 265.639C296.611 265.377 296.499 265.116 296.311 264.966L283.728 254.795C283.541 254.646 283.241 254.571 283.016 254.683L275.414 257.6C275.152 257.712 275.002 257.899 274.964 258.16L274.403 261.638L280.357 262.573C285.039 263.321 288.222 267.733 287.473 272.407C286.724 277.081 282.305 280.26 277.623 279.512L271.669 278.577L271.107 282.055C271.07 282.316 271.182 282.578 271.369 282.728L277.698 287.85C277.998 288 278.26 288.075 278.522 287.963ZM352.338 284.822C351.252 284.635 350.465 283.625 350.653 282.503C350.84 281.419 351.889 280.634 352.975 280.821C354.098 281.008 354.847 282.055 354.66 283.139C354.473 284.223 353.462 284.971 352.338 284.822Z" fill="url(#paint56_linear_50_3922)"/>
<path d="M275.451 258.198L281.406 259.133C286.087 259.881 289.271 264.293 288.522 268.967C288.372 269.939 288.072 270.837 287.623 271.659C287.96 267.247 284.851 263.283 280.432 262.573L274.478 261.638L275.039 258.161C275.077 257.899 275.264 257.674 275.489 257.6L275.564 257.562L275.451 258.198Z" fill="#CCCCCC"/>
<path d="M271.182 282.017L271.744 278.54L272.156 278.615C272.118 278.876 272.231 279.138 272.418 279.288L278.747 284.41C278.934 284.56 279.234 284.635 279.459 284.523L294.514 278.764L294.064 281.569C294.027 281.83 293.84 282.055 293.615 282.13L278.485 287.925C278.223 288.038 277.961 287.963 277.773 287.813L271.444 282.69C271.257 282.541 271.145 282.279 271.182 282.017Z" fill="#CCCCCC"/>
<path d="M295.675 274.576L350.728 283.401C350.952 284.111 351.552 284.672 352.338 284.784C353.162 284.934 353.948 284.522 354.36 283.849C355.596 283.775 356.72 283.176 357.506 282.279C357.544 282.69 357.544 283.139 357.506 283.55C357.132 285.943 354.847 287.589 352.45 287.215L295.113 278.053L295.675 274.576Z" fill="#CCCCCC"/>
<path d="M252.719 274.015L251.82 273.641C252.044 272.37 252.082 271.061 251.932 269.79L253.018 269.341C254.629 268.705 255.378 266.873 254.741 265.265C254.104 263.657 252.269 262.909 250.659 263.545L249.76 263.919C249.048 262.872 248.15 261.9 247.138 261.114L247.588 260.067C248.262 258.46 247.513 256.627 245.902 255.954C244.292 255.281 242.457 256.029 241.783 257.637L241.408 258.534C240.135 258.31 238.824 258.273 237.551 258.422L237.102 257.338C236.465 255.73 234.63 254.982 233.019 255.618C231.409 256.253 230.66 258.086 231.297 259.694L231.671 260.591C230.623 261.301 229.649 262.199 228.862 263.208L227.814 262.76C226.203 262.087 224.368 262.835 223.694 264.442C223.02 266.05 223.769 267.883 225.379 268.556L226.278 268.93C226.054 270.201 226.016 271.51 226.166 272.781L225.08 273.23C223.469 273.865 222.72 275.698 223.357 277.306C223.994 278.913 225.829 279.661 227.439 279.026L228.338 278.652C229.05 279.699 229.948 280.671 230.96 281.456L230.51 282.503C229.836 284.111 230.585 285.943 232.195 286.616C233.806 287.289 235.641 286.542 236.315 284.934L236.69 284.036C237.963 284.261 239.274 284.298 240.547 284.148L240.996 285.233C241.633 286.841 243.468 287.589 245.079 286.953C246.689 286.317 247.438 284.485 246.801 282.877L246.427 281.98C247.475 281.269 248.449 280.372 249.236 279.362L250.284 279.811C251.895 280.484 253.73 279.736 254.404 278.128C255.078 276.52 254.329 274.688 252.719 274.015ZM247.663 274.912C245.64 279.661 240.173 281.868 235.454 279.886C230.697 277.866 228.488 272.407 230.473 267.696C232.495 262.947 237.963 260.741 242.682 262.722C247.401 264.704 249.648 270.164 247.663 274.912Z" fill="url(#paint57_linear_50_3922)"/>
<path d="M233.619 268.967C232.345 271.958 233.768 275.399 236.764 276.67C239.761 277.941 243.243 276.52 244.479 273.529C245.753 270.537 244.33 267.06 241.333 265.826C238.337 264.592 234.892 265.976 233.619 268.967Z" fill="url(#paint58_linear_50_3922)"/>
<path d="M380.014 181.692C381.025 181.692 381.887 180.982 382.149 180.047H399.901C400.013 181.019 400.837 181.804 401.848 181.804C402.934 181.804 403.796 180.944 403.796 179.86C403.796 178.775 402.934 177.915 401.848 177.915C401.062 177.915 400.388 178.364 400.088 179.037H382.149C381.924 178.102 381.063 177.392 380.014 177.392C378.816 177.392 377.842 178.364 377.842 179.561C377.805 180.72 378.778 181.692 380.014 181.692ZM380.014 178.401C380.651 178.401 381.138 178.925 381.138 179.523C381.138 180.159 380.613 180.645 380.014 180.645C379.378 180.645 378.891 180.122 378.891 179.523C378.853 178.888 379.378 178.401 380.014 178.401Z" fill="#B3B3B3"/>
<path d="M24.9049 211.008C26.328 211.008 27.489 210.036 27.826 208.727H52.4313C52.5811 210.073 53.742 211.158 55.1277 211.158C56.6258 211.158 57.8616 209.961 57.8616 208.428C57.8616 206.932 56.6632 205.698 55.1277 205.698C54.0417 205.698 53.1054 206.334 52.6934 207.231H27.826C27.489 205.923 26.328 204.95 24.9049 204.95C23.257 204.95 21.8713 206.297 21.8713 207.979C21.8713 209.662 23.257 211.008 24.9049 211.008ZM24.9049 206.446C25.7662 206.446 26.4778 207.157 26.4778 208.017C26.4778 208.877 25.7662 209.587 24.9049 209.587C24.0435 209.587 23.3319 208.877 23.3319 208.017C23.3319 207.119 24.0435 206.446 24.9049 206.446Z" fill="#B3B3B3"/>
<path d="M385.782 163.295C384.771 163.295 383.947 164.043 383.834 165.015H370.801L360.615 154.844H351.14C350.878 154.844 350.653 155.068 350.653 155.33C350.653 155.592 350.878 155.816 351.14 155.816H360.203L370.389 165.987H383.909C384.171 166.735 384.92 167.296 385.782 167.296C386.868 167.296 387.767 166.398 387.767 165.314C387.767 164.192 386.868 163.295 385.782 163.295ZM385.782 166.286C385.22 166.286 384.733 165.837 384.733 165.239C384.733 164.641 385.183 164.192 385.782 164.192C386.344 164.192 386.83 164.641 386.83 165.239C386.83 165.837 386.344 166.286 385.782 166.286Z" fill="#B3B3B3"/>
<path d="M39.8477 226.676C39.8477 228.059 40.9712 229.181 42.3569 229.181C43.4429 229.181 44.3792 228.508 44.7163 227.536H61.9062L74.8642 214.598H86.3991C86.7362 214.598 86.9983 214.336 86.9983 213.999C86.9983 213.663 86.7362 213.401 86.3991 213.401H74.3774L61.4194 226.339H44.8661C44.6788 225.105 43.6302 224.17 42.3569 224.17C41.0086 224.17 39.8477 225.292 39.8477 226.676ZM41.0835 226.676C41.0835 225.965 41.6827 225.367 42.3943 225.367C43.1059 225.367 43.7051 225.965 43.7051 226.676C43.7051 227.386 43.1059 227.984 42.3943 227.984C41.6827 227.984 41.0835 227.423 41.0835 226.676Z" fill="#B3B3B3"/>
<path d="M389.639 288H13.0705C12.7708 288 12.5461 287.776 12.5461 287.477V287.327C12.5461 287.028 12.7708 286.803 13.0705 286.803H389.639C389.939 286.803 390.164 287.028 390.164 287.327V287.477C390.164 287.776 389.939 288 389.639 288Z" fill="#1F1C80"/>
<path d="M419.787 288H397.129C396.83 288 396.568 287.738 396.568 287.439V287.364C396.568 287.065 396.83 286.803 397.129 286.803H419.787C420.087 286.803 420.349 287.065 420.349 287.364V287.439C420.349 287.776 420.087 288 419.787 288Z" fill="#1F1C80"/>
</g>
<defs>
<linearGradient id="paint0_linear_50_3922" x1="255.379" y1="31.1554" x2="276.283" y2="71.3087" gradientUnits="userSpaceOnUse">
<stop stop-color="#AD88FF"/>
<stop offset="1" stop-color="#6038BA"/>
</linearGradient>
<linearGradient id="paint1_linear_50_3922" x1="255.38" y1="31.1551" x2="276.284" y2="71.3083" gradientUnits="userSpaceOnUse">
<stop stop-color="#AD88FF"/>
<stop offset="1" stop-color="#6038BA"/>
</linearGradient>
<linearGradient id="paint2_linear_50_3922" x1="284.83" y1="5.85322" x2="320.402" y2="43.155" gradientUnits="userSpaceOnUse">
<stop stop-color="#FFDD4F"/>
<stop offset="1" stop-color="#FF8F5C"/>
</linearGradient>
<linearGradient id="paint3_linear_50_3922" x1="284.83" y1="5.85274" x2="320.403" y2="43.1544" gradientUnits="userSpaceOnUse">
<stop stop-color="#FFDD4F"/>
<stop offset="1" stop-color="#FF8F5C"/>
</linearGradient>
<linearGradient id="paint4_linear_50_3922" x1="59.1838" y1="19.9013" x2="100.939" y2="90.1705" gradientUnits="userSpaceOnUse">
<stop stop-color="#FF66BA"/>
<stop offset="1" stop-color="#8A1988"/>
</linearGradient>
<linearGradient id="paint5_linear_50_3922" x1="64.6741" y1="16.6389" x2="106.415" y2="86.8851" gradientUnits="userSpaceOnUse">
<stop stop-color="#FF66BA"/>
<stop offset="1" stop-color="#8A1988"/>
</linearGradient>
<linearGradient id="paint6_linear_50_3922" x1="94.9341" y1="87.6441" x2="37.934" y2="57.0569" gradientUnits="userSpaceOnUse">
<stop stop-color="#FF8F5C"/>
<stop offset="1" stop-color="#FFDD4F"/>
</linearGradient>
<linearGradient id="paint7_linear_50_3922" x1="98.3024" y1="81.3673" x2="41.3024" y2="50.7801" gradientUnits="userSpaceOnUse">
<stop stop-color="#FF8F5C"/>
<stop offset="1" stop-color="#FFDD4F"/>
</linearGradient>
<linearGradient id="paint8_linear_50_3922" x1="90.7025" y1="95.5298" x2="33.7024" y2="64.9425" gradientUnits="userSpaceOnUse">
<stop stop-color="#FF8F5C"/>
<stop offset="1" stop-color="#FFDD4F"/>
</linearGradient>
<linearGradient id="paint9_linear_50_3922" x1="70.1739" y1="80.8087" x2="74.2021" y2="80.8087" gradientUnits="userSpaceOnUse">
<stop stop-color="#FF8F5C"/>
<stop offset="1" stop-color="#FFDD4F"/>
</linearGradient>
<linearGradient id="paint10_linear_50_3922" x1="59.2434" y1="24.09" x2="95.742" y2="24.09" gradientUnits="userSpaceOnUse">
<stop stop-color="#FF66BA"/>
<stop offset="1" stop-color="#8A1988"/>
</linearGradient>
<linearGradient id="paint11_linear_50_3922" x1="96.9021" y1="38.6157" x2="99.0907" y2="38.6157" gradientUnits="userSpaceOnUse">
<stop stop-color="#FF66BA"/>
<stop offset="1" stop-color="#8A1988"/>
</linearGradient>
<linearGradient id="paint12_linear_50_3922" x1="49.2247" y1="29.9282" x2="55.9941" y2="29.9282" gradientUnits="userSpaceOnUse">
<stop stop-color="#FF66BA"/>
<stop offset="1" stop-color="#8A1988"/>
</linearGradient>
<linearGradient id="paint13_linear_50_3922" x1="101.278" y1="75.8224" x2="44.2779" y2="45.2352" gradientUnits="userSpaceOnUse">
<stop stop-color="#FF8F5C"/>
<stop offset="1" stop-color="#FFDD4F"/>
</linearGradient>
<linearGradient id="paint14_linear_50_3922" x1="103.673" y1="71.3592" x2="46.6727" y2="40.7719" gradientUnits="userSpaceOnUse">
<stop stop-color="#FF8F5C"/>
<stop offset="1" stop-color="#FFDD4F"/>
</linearGradient>
<linearGradient id="paint15_linear_50_3922" x1="361.174" y1="114.867" x2="425.063" y2="127.196" gradientUnits="userSpaceOnUse">
<stop stop-color="#FF8F5C"/>
<stop offset="1" stop-color="#FFDD4F"/>
</linearGradient>
<linearGradient id="paint16_linear_50_3922" x1="393.861" y1="51.8738" x2="336.056" y2="136.326" gradientUnits="userSpaceOnUse">
<stop stop-color="#FF66BA"/>
<stop offset="1" stop-color="#8A1988"/>
</linearGradient>
<linearGradient id="paint17_linear_50_3922" x1="407.285" y1="61.0621" x2="349.48" y2="145.514" gradientUnits="userSpaceOnUse">
<stop stop-color="#FF66BA"/>
<stop offset="1" stop-color="#8A1988"/>
</linearGradient>
<linearGradient id="paint18_linear_50_3922" x1="396.432" y1="53.6337" x2="338.627" y2="138.086" gradientUnits="userSpaceOnUse">
<stop stop-color="#FF66BA"/>
<stop offset="1" stop-color="#8A1988"/>
</linearGradient>
<linearGradient id="paint19_linear_50_3922" x1="386.591" y1="46.8976" x2="328.786" y2="131.35" gradientUnits="userSpaceOnUse">
<stop stop-color="#FF66BA"/>
<stop offset="1" stop-color="#8A1988"/>
</linearGradient>
<linearGradient id="paint20_linear_50_3922" x1="412.134" y1="64.3815" x2="354.329" y2="148.833" gradientUnits="userSpaceOnUse">
<stop stop-color="#FF66BA"/>
<stop offset="1" stop-color="#8A1988"/>
</linearGradient>
<linearGradient id="paint21_linear_50_3922" x1="414.101" y1="65.7281" x2="356.296" y2="150.18" gradientUnits="userSpaceOnUse">
<stop stop-color="#FF66BA"/>
<stop offset="1" stop-color="#8A1988"/>
</linearGradient>
<linearGradient id="paint22_linear_50_3922" x1="85.3398" y1="137.651" x2="348.663" y2="137.651" gradientUnits="userSpaceOnUse">
<stop stop-color="#C4E6FF"/>
<stop offset="1" stop-color="#73B2FF"/>
</linearGradient>
<radialGradient id="paint23_radial_50_3922" cx="0" cy="0" r="1" gradientUnits="userSpaceOnUse" gradientTransform="translate(284.478 132.045) scale(11.6608 11.6427)">
<stop stop-color="#423AE0"/>
<stop offset="1" stop-color="#07008F"/>
</radialGradient>
<radialGradient id="paint24_radial_50_3922" cx="0" cy="0" r="1" gradientUnits="userSpaceOnUse" gradientTransform="translate(156.977 134.005) scale(11.6608 11.6427)">
<stop stop-color="#423AE0"/>
<stop offset="1" stop-color="#07008F"/>
</radialGradient>
<linearGradient id="paint25_linear_50_3922" x1="215.853" y1="34.483" x2="227.054" y2="34.483" gradientUnits="userSpaceOnUse">
<stop stop-color="#2720B3"/>
<stop offset="1" stop-color="#07008F"/>
</linearGradient>
<linearGradient id="paint26_linear_50_3922" x1="204.153" y1="86.3365" x2="239.242" y2="86.3365" gradientUnits="userSpaceOnUse">
<stop stop-color="#2720B3"/>
<stop offset="1" stop-color="#07008F"/>
</linearGradient>
<radialGradient id="paint27_radial_50_3922" cx="0" cy="0" r="1" gradientUnits="userSpaceOnUse" gradientTransform="translate(221.697 143.369) scale(38.7286 38.6687)">
<stop stop-color="#423AE0"/>
<stop offset="1" stop-color="#07008F"/>
</radialGradient>
<linearGradient id="paint28_linear_50_3922" x1="84.0464" y1="275.058" x2="140.713" y2="275.058" gradientUnits="userSpaceOnUse">
<stop stop-color="#1E2694"/>
<stop offset="1" stop-color="#150E44"/>
</linearGradient>
<linearGradient id="paint29_linear_50_3922" x1="100.84" y1="276.615" x2="143.093" y2="280.808" gradientUnits="userSpaceOnUse">
<stop stop-color="#1E2694"/>
<stop offset="1" stop-color="#150E44"/>
</linearGradient>
<linearGradient id="paint30_linear_50_3922" x1="95.5279" y1="230.012" x2="128.949" y2="266.952" gradientUnits="userSpaceOnUse">
<stop stop-color="#FFDD4F"/>
<stop offset="1" stop-color="#FF8F5C"/>
</linearGradient>
<linearGradient id="paint31_linear_50_3922" x1="79.4505" y1="279.738" x2="121.612" y2="275.913" gradientUnits="userSpaceOnUse">
<stop stop-color="#1E2694"/>
<stop offset="1" stop-color="#150E44"/>
</linearGradient>
<linearGradient id="paint32_linear_50_3922" x1="48.8937" y1="166.348" x2="114.813" y2="219.632" gradientUnits="userSpaceOnUse">
<stop stop-color="#FF66BA"/>
<stop offset="1" stop-color="#8A1988"/>
</linearGradient>
<linearGradient id="paint33_linear_50_3922" x1="49.1021" y1="197.581" x2="78.9471" y2="197.581" gradientUnits="userSpaceOnUse">
<stop stop-color="#FF66BA"/>
<stop offset="1" stop-color="#8A1988"/>
</linearGradient>
<linearGradient id="paint34_linear_50_3922" x1="91.1242" y1="178.856" x2="99.3018" y2="178.856" gradientUnits="userSpaceOnUse">
<stop stop-color="#FF66BA"/>
<stop offset="1" stop-color="#8A1988"/>
</linearGradient>
<linearGradient id="paint35_linear_50_3922" x1="80.7199" y1="196.87" x2="83.8943" y2="196.87" gradientUnits="userSpaceOnUse">
<stop stop-color="#FF66BA"/>
<stop offset="1" stop-color="#8A1988"/>
</linearGradient>
<linearGradient id="paint36_linear_50_3922" x1="75.3484" y1="136.016" x2="131.049" y2="136.016" gradientUnits="userSpaceOnUse">
<stop stop-color="#AD88FF"/>
<stop offset="1" stop-color="#6038BA"/>
</linearGradient>
<linearGradient id="paint37_linear_50_3922" x1="104.275" y1="139.44" x2="75.9869" y2="135.865" gradientUnits="userSpaceOnUse">
<stop stop-color="#AD88FF"/>
<stop offset="1" stop-color="#6038BA"/>
</linearGradient>
<linearGradient id="paint38_linear_50_3922" x1="105.874" y1="128.068" x2="127.7" y2="128.068" gradientUnits="userSpaceOnUse">
<stop stop-color="#AD88FF"/>
<stop offset="1" stop-color="#6038BA"/>
</linearGradient>
<linearGradient id="paint39_linear_50_3922" x1="105.874" y1="131.996" x2="120.839" y2="131.996" gradientUnits="userSpaceOnUse">
<stop stop-color="#AD88FF"/>
<stop offset="1" stop-color="#6038BA"/>
</linearGradient>
<linearGradient id="paint40_linear_50_3922" x1="122.302" y1="131.996" x2="127.421" y2="131.996" gradientUnits="userSpaceOnUse">
<stop stop-color="#AD88FF"/>
<stop offset="1" stop-color="#6038BA"/>
</linearGradient>
<linearGradient id="paint41_linear_50_3922" x1="105.874" y1="137.066" x2="127.7" y2="137.066" gradientUnits="userSpaceOnUse">
<stop stop-color="#AD88FF"/>
<stop offset="1" stop-color="#6038BA"/>
</linearGradient>
<linearGradient id="paint42_linear_50_3922" x1="105.874" y1="140.993" x2="120.839" y2="140.993" gradientUnits="userSpaceOnUse">
<stop stop-color="#AD88FF"/>
<stop offset="1" stop-color="#6038BA"/>
</linearGradient>
<linearGradient id="paint43_linear_50_3922" x1="122.302" y1="140.993" x2="127.421" y2="140.993" gradientUnits="userSpaceOnUse">
<stop stop-color="#AD88FF"/>
<stop offset="1" stop-color="#6038BA"/>
</linearGradient>
<linearGradient id="paint44_linear_50_3922" x1="306.373" y1="218.904" x2="384.761" y2="218.904" gradientUnits="userSpaceOnUse">
<stop stop-color="#AD88FF"/>
<stop offset="1" stop-color="#6038BA"/>
</linearGradient>
<linearGradient id="paint45_linear_50_3922" x1="349.332" y1="207.719" x2="380.048" y2="207.719" gradientUnits="userSpaceOnUse">
<stop stop-color="#AD88FF"/>
<stop offset="1" stop-color="#6038BA"/>
</linearGradient>
<linearGradient id="paint46_linear_50_3922" x1="349.332" y1="213.246" x2="370.392" y2="213.246" gradientUnits="userSpaceOnUse">
<stop stop-color="#AD88FF"/>
<stop offset="1" stop-color="#6038BA"/>
</linearGradient>
<linearGradient id="paint47_linear_50_3922" x1="372.451" y1="213.246" x2="379.656" y2="213.246" gradientUnits="userSpaceOnUse">
<stop stop-color="#AD88FF"/>
<stop offset="1" stop-color="#6038BA"/>
</linearGradient>
<linearGradient id="paint48_linear_50_3922" x1="315.05" y1="207.719" x2="345.766" y2="207.719" gradientUnits="userSpaceOnUse">
<stop stop-color="#AD88FF"/>
<stop offset="1" stop-color="#6038BA"/>
</linearGradient>
<linearGradient id="paint49_linear_50_3922" x1="315.05" y1="213.246" x2="336.11" y2="213.246" gradientUnits="userSpaceOnUse">
<stop stop-color="#AD88FF"/>
<stop offset="1" stop-color="#6038BA"/>
</linearGradient>
<linearGradient id="paint50_linear_50_3922" x1="338.169" y1="213.246" x2="345.374" y2="213.246" gradientUnits="userSpaceOnUse">
<stop stop-color="#AD88FF"/>
<stop offset="1" stop-color="#6038BA"/>
</linearGradient>
<linearGradient id="paint51_linear_50_3922" x1="349.332" y1="229.698" x2="380.048" y2="229.698" gradientUnits="userSpaceOnUse">
<stop stop-color="#AD88FF"/>
<stop offset="1" stop-color="#6038BA"/>
</linearGradient>
<linearGradient id="paint52_linear_50_3922" x1="349.332" y1="235.225" x2="370.392" y2="235.225" gradientUnits="userSpaceOnUse">
<stop stop-color="#AD88FF"/>
<stop offset="1" stop-color="#6038BA"/>
</linearGradient>
<linearGradient id="paint53_linear_50_3922" x1="372.451" y1="235.225" x2="379.656" y2="235.225" gradientUnits="userSpaceOnUse">
<stop stop-color="#AD88FF"/>
<stop offset="1" stop-color="#6038BA"/>
</linearGradient>
<linearGradient id="paint54_linear_50_3922" x1="320.269" y1="228.101" x2="340.547" y2="228.101" gradientUnits="userSpaceOnUse">
<stop stop-color="#AD88FF"/>
<stop offset="1" stop-color="#6038BA"/>
</linearGradient>
<linearGradient id="paint55_linear_50_3922" x1="316.776" y1="234.749" x2="337.054" y2="234.749" gradientUnits="userSpaceOnUse">
<stop stop-color="#AD88FF"/>
<stop offset="1" stop-color="#6038BA"/>
</linearGradient>
<linearGradient id="paint56_linear_50_3922" x1="258.473" y1="263.786" x2="403.856" y2="312.945" gradientUnits="userSpaceOnUse">
<stop stop-color="#FF66BA"/>
<stop offset="1" stop-color="#8A1988"/>
</linearGradient>
<linearGradient id="paint57_linear_50_3922" x1="231.854" y1="257.487" x2="245.984" y2="284.63" gradientUnits="userSpaceOnUse">
<stop stop-color="#AD88FF"/>
<stop offset="1" stop-color="#6038BA"/>
</linearGradient>
<linearGradient id="paint58_linear_50_3922" x1="231.854" y1="257.487" x2="245.985" y2="284.629" gradientUnits="userSpaceOnUse">
<stop stop-color="#AD88FF"/>
<stop offset="1" stop-color="#6038BA"/>
</linearGradient>
<clipPath id="clip0_50_3922">
<rect width="429" height="288" fill="white"/>
</clipPath>
</defs>
</svg>
