<svg width="86" height="86" viewBox="0 0 86 86" fill="none" xmlns="http://www.w3.org/2000/svg">
<path d="M51.8686 77.806V79.9592C51.8686 80.1483 51.8583 80.3375 51.8378 80.5215C51.5542 83.0546 49.3809 85.0254 46.7428 85.0254H38.8832C36.2451 85.0254 34.0717 83.0546 33.7881 80.5215C33.7676 80.3375 33.7573 80.1483 33.7573 79.9592V77.806C34.4356 78.1049 35.1874 78.2704 35.9785 78.2704H49.6474C50.4385 78.2704 51.1903 78.1049 51.8686 77.806Z" fill="#50758D"/>
<path d="M42.5566 11.0973C41.8487 11.0973 41.2751 10.5304 41.2751 9.83074V1.29195C41.2751 0.592302 41.8487 0.0253906 42.5566 0.0253906C43.2645 0.0253906 43.8381 0.592302 43.8381 1.29195V9.83074C43.8381 10.5304 43.2643 11.0973 42.5566 11.0973Z" fill="#FAA515"/>
<path d="M19.5541 20.5145C19.2261 20.5145 18.8982 20.3909 18.6479 20.1437L12.5389 14.1056C12.0385 13.6108 12.0385 12.809 12.5389 12.3143C13.0397 11.8197 13.851 11.82 14.3512 12.3143L20.4602 18.3524C20.9607 18.8472 20.9607 19.649 20.4602 20.1437C20.2099 20.3909 19.8818 20.5145 19.5541 20.5145Z" fill="#FAA515"/>
<path d="M10.0263 43.2493H1.38693C0.679049 43.2493 0.105469 42.6824 0.105469 41.9827C0.105469 41.2831 0.679049 40.7162 1.38693 40.7162H10.0262C10.7341 40.7162 11.3076 41.2831 11.3076 41.9827C11.3076 42.6824 10.734 43.2493 10.0263 43.2493Z" fill="#FAA515"/>
<path d="M13.4452 72.022C13.1173 72.022 12.7892 71.8984 12.5389 71.6512C12.0385 71.1564 12.0385 70.3546 12.5389 69.86L18.6479 63.822C19.1485 63.3276 19.9598 63.3276 20.4602 63.822C20.9607 64.3168 20.9607 65.1186 20.4602 65.6133L14.3512 71.6512C14.1009 71.8984 13.773 72.022 13.4452 72.022Z" fill="#FAA515"/>
<path d="M71.6676 72.022C71.3398 72.022 71.0117 71.8984 70.7614 71.6512L64.6524 65.6133C64.152 65.1185 64.152 64.3167 64.6524 63.822C65.1531 63.3276 65.9643 63.3276 66.4648 63.822L72.5737 69.86C73.0742 70.3548 73.0742 71.1566 72.5737 71.6512C72.3236 71.8984 71.9955 72.022 71.6676 72.022Z" fill="#FAA515"/>
<path d="M83.7261 43.2493H75.0869C74.379 43.2493 73.8054 42.6824 73.8054 41.9827C73.8054 41.2831 74.379 40.7162 75.0869 40.7162H83.7261C84.434 40.7162 85.0076 41.2831 85.0076 41.9827C85.0076 42.6824 84.4338 43.2493 83.7261 43.2493Z" fill="#FAA515"/>
<path d="M65.5587 20.5145C65.2308 20.5145 64.9027 20.3909 64.6524 20.1437C64.152 19.6489 64.152 18.8471 64.6524 18.3524L70.7614 12.3143C71.262 11.8199 72.0733 11.8199 72.5737 12.3143C73.0742 12.8091 73.0742 13.6109 72.5737 14.1056L66.4648 20.1437C66.2146 20.3909 65.8866 20.5145 65.5587 20.5145Z" fill="#FAA515"/>
<path d="M42.813 76.5817C42.813 76.5817 34.4356 78.1049 33.7573 77.806V79.9592C33.7573 80.1483 33.7676 80.3374 33.7881 80.5215C34.0717 83.0546 36.2451 85.0254 38.8832 85.0254H41.1043C38.8755 85.0254 36.9787 83.6185 36.2727 81.6545C36.1533 81.3223 36.398 80.9724 36.7546 80.9724H49.6474C50.4265 80.9724 51.1681 80.812 51.8378 80.5215C51.8583 80.3374 51.8686 80.1483 51.8686 79.9592V77.806C51.1903 78.1049 42.813 76.5817 42.813 76.5817Z" fill="#2B597F"/>
<path d="M55.115 72.8665C55.115 75.0686 53.7805 76.9651 51.8686 77.8061C51.1903 78.105 50.4385 78.2705 49.6474 78.2705H35.9785C35.1874 78.2705 34.4356 78.105 33.7573 77.8061C31.8454 76.9651 30.511 75.0686 30.511 72.8665C30.511 72.8665 30.4307 64.9733 30.4153 64.7673V64.7605L42.813 63.0718L55.0688 64.7605L55.115 72.8665Z" fill="#50758D"/>
<path d="M38.8832 78.2704H35.9785C35.1874 78.2704 34.4356 78.1049 33.7573 77.806C31.8454 76.965 30.511 75.0686 30.511 72.8665C30.511 72.8665 30.4307 64.9733 30.4153 64.7672V64.7605H33.3199V64.7672C33.3353 64.9733 33.4156 72.8665 33.4156 72.8665C33.4156 75.0686 34.75 76.965 36.662 77.806C37.3401 78.1049 38.0919 78.2704 38.8832 78.2704Z" fill="#2B597F"/>
<path d="M55.115 72.782H50.758C50.0507 72.782 49.4766 72.2146 49.4766 71.5155C49.4766 70.8163 50.0507 70.2489 50.758 70.2489H55.1013L55.1081 71.5155L55.115 72.782Z" fill="#2B597F"/>
<path d="M46.0593 71.5155C46.0593 72.2146 45.4852 72.782 44.7779 72.782H30.5093L30.4802 70.2489H44.7779C45.4852 70.2489 46.0593 70.8163 46.0593 71.5155Z" fill="#2B597F"/>
<path d="M42.5788 15.309C42.5786 15.309 42.5785 15.309 42.5783 15.309L42.5788 15.3085C29.383 15.1079 18.2859 26.4752 18.5233 39.4226C18.5233 46.0273 21.1699 52.0139 25.4585 56.3691C27.9856 58.9377 30.1726 61.3121 30.4152 64.7605L55.0687 64.801C55.2071 61.2513 57.2489 58.8533 59.793 56.2273C63.9996 51.8855 66.5899 45.958 66.5899 39.4226C66.5897 26.1119 55.8427 15.3209 42.5788 15.309Z" fill="#FAD207"/>
<path d="M55.0685 64.7959V64.801L30.415 64.7605C30.1723 61.3121 27.9853 58.9377 25.4583 56.3691C21.1697 52.0138 18.523 46.0273 18.523 39.4226C18.2855 26.475 29.383 15.1081 42.5786 15.309C43.004 15.309 43.4277 15.3208 43.8481 15.3428C31.3837 16.0571 21.2004 27.0137 21.4277 39.4226C21.4277 46.0273 24.0743 52.0138 28.3629 56.3691C30.89 58.9377 33.077 61.3121 33.3196 64.7605L55.0685 64.7959Z" fill="#FAA515"/>
<path d="M43.1598 51.4922C42.6484 52.1432 41.8717 52.5372 41.0384 52.5678C41.0032 52.5691 40.968 52.5698 40.933 52.5698C40.1376 52.5698 39.3773 52.2373 38.8416 51.6516L30.8112 42.8704C29.7672 41.7286 29.8572 39.9667 31.0124 38.9347C32.1675 37.9027 33.9499 37.9917 34.9943 39.1335L40.7694 45.4486L49.9835 33.7201C50.9382 32.5047 52.7094 32.2843 53.9391 33.2281C55.1689 34.172 55.3917 35.9225 54.4368 37.1379L43.1598 51.4922Z" fill="#FAA515"/>
</svg>
