<svg width="54" height="54" viewBox="0 0 54 54" fill="none" xmlns="http://www.w3.org/2000/svg">
<path d="M36.5807 14.8064H17.4194C16.4587 14.8064 15.6775 15.5877 15.6775 16.5483V20.0322C15.6775 20.9929 16.4587 21.7741 17.4194 21.7741H18.2904V23.5161H17.4194C16.4587 23.5161 15.6775 24.2973 15.6775 25.258V28.7419C15.6775 29.7026 16.4587 30.4838 17.4194 30.4838H18.2904V32.2258H17.4194C16.4587 32.2258 15.6775 33.007 15.6775 33.9677V37.4516C15.6775 38.4122 16.4587 39.1935 17.4194 39.1935H36.5807C37.5414 39.1935 38.3227 38.4122 38.3227 37.4516V33.9677C38.3227 33.007 37.5414 32.2258 36.5807 32.2258H35.7097V30.4838H36.5807C37.5414 30.4838 38.3227 29.7026 38.3227 28.7419V25.258C38.3227 24.2973 37.5414 23.5161 36.5807 23.5161H35.7097V21.7741H36.5807C37.5414 21.7741 38.3227 20.9929 38.3227 20.0322V16.5483C38.3227 15.5877 37.5414 14.8064 36.5807 14.8064ZM36.5807 33.9677V37.4516H17.4194L17.4186 33.9677H17.4194H36.5807ZM20.0323 32.2258V30.4838H33.9678V32.2258H20.0323ZM36.5807 25.258V28.7419H17.4194L17.4186 25.258H17.4194H36.5807ZM20.0323 23.5161V21.7741H33.9678V23.5161H20.0323ZM36.5807 20.0322H17.4194L17.4186 16.5483H17.4194H36.5807V20.0322Z" fill="white"/>
<path d="M49.6453 4.35474H47.9033V6.09667H49.6453V4.35474Z" fill="white"/>
<path d="M6.09667 4.35474H4.35474V6.09667H6.09667V4.35474Z" fill="white"/>
<path d="M6.09667 47.9033H4.35474V49.6453H6.09667V47.9033Z" fill="white"/>
<path d="M48.7742 43.5484C47.6472 43.5484 46.6055 43.9107 45.7511 44.5195L40.5139 39.2824C43.47 36.0319 45.2903 31.7294 45.2903 27C45.2903 22.2706 43.47 17.9681 40.5139 14.7176L45.7511 9.48048C46.6055 10.0893 47.6472 10.4516 48.7742 10.4516C51.6562 10.4516 54 8.10784 54 5.22581C54 2.34377 51.6562 0 48.7742 0C45.8922 0 43.5484 2.34377 43.5484 5.22581C43.5484 6.35284 43.9107 7.39452 44.5195 8.24894L39.2824 13.4861C36.0319 10.53 31.7294 8.70968 27 8.70968C22.2706 8.70968 17.9681 10.53 14.7176 13.4861L9.48048 8.24894C10.0893 7.39452 10.4516 6.35284 10.4516 5.22581C10.4516 2.34377 8.10784 0 5.22581 0C2.34377 0 0 2.34377 0 5.22581C0 8.10784 2.34377 10.4516 5.22581 10.4516C6.35284 10.4516 7.39452 10.0893 8.24894 9.48048L13.4861 14.7176C10.53 17.9681 8.70968 22.2706 8.70968 27C8.70968 31.7294 10.53 36.0319 13.4861 39.2824L8.24894 44.5195C7.39452 43.9107 6.35284 43.5484 5.22581 43.5484C2.34377 43.5484 0 45.8922 0 48.7742C0 51.6562 2.34377 54 5.22581 54C8.10784 54 10.4516 51.6562 10.4516 48.7742C10.4516 47.6472 10.0893 46.6055 9.48048 45.7511L14.7176 40.5139C17.9681 43.47 22.2706 45.2903 27 45.2903C31.7294 45.2903 36.0319 43.47 39.2824 40.5139L44.5195 45.7511C43.9107 46.6055 43.5484 47.6472 43.5484 48.7742C43.5484 51.6562 45.8922 54 48.7742 54C51.6562 54 54 51.6562 54 48.7742C54 45.8922 51.6562 43.5484 48.7742 43.5484ZM48.7742 1.74194C50.6955 1.74194 52.2581 3.30445 52.2581 5.22581C52.2581 7.14716 50.6955 8.70968 48.7742 8.70968C46.8528 8.70968 45.2903 7.14716 45.2903 5.22581C45.2903 3.30445 46.8528 1.74194 48.7742 1.74194ZM5.22581 8.70968C3.30445 8.70968 1.74194 7.14716 1.74194 5.22581C1.74194 3.30445 3.30445 1.74194 5.22581 1.74194C7.14716 1.74194 8.70968 3.30445 8.70968 5.22581C8.70968 7.14716 7.14716 8.70968 5.22581 8.70968ZM5.22581 52.2581C3.30445 52.2581 1.74194 50.6955 1.74194 48.7742C1.74194 46.8528 3.30445 45.2903 5.22581 45.2903C7.14716 45.2903 8.70968 46.8528 8.70968 48.7742C8.70968 50.6955 7.14716 52.2581 5.22581 52.2581ZM27 43.5484C17.8749 43.5484 10.4516 36.1251 10.4516 27C10.4516 17.8749 17.8749 10.4516 27 10.4516C36.1251 10.4516 43.5484 17.8749 43.5484 27C43.5484 36.1251 36.1251 43.5484 27 43.5484ZM48.7742 52.2581C46.8528 52.2581 45.2903 50.6955 45.2903 48.7742C45.2903 46.8528 46.8528 45.2903 48.7742 45.2903C50.6955 45.2903 52.2581 46.8528 52.2581 48.7742C52.2581 50.6955 50.6955 52.2581 48.7742 52.2581Z" fill="white"/>
<path d="M49.6453 47.9033H47.9033V49.6453H49.6453V47.9033Z" fill="white"/>
<path d="M23.0292 5.58819L22.713 3.875C22.1504 3.97865 21.5834 4.10581 21.0269 4.25126L21.4693 5.93658C21.984 5.80158 22.5092 5.684 23.0292 5.58819Z" fill="white"/>
<path d="M26.2066 5.24058L26.1448 3.49951C25.5734 3.51954 24.9942 3.56222 24.4229 3.62406L24.6119 5.35554C25.1405 5.29806 25.677 5.25887 26.2066 5.24058Z" fill="white"/>
<path d="M19.9391 6.39909L19.3739 4.75122C18.8295 4.93761 18.2869 5.14751 17.7617 5.37222L18.448 6.97306C18.9332 6.76577 19.4348 6.57154 19.9391 6.39909Z" fill="white"/>
<path d="M29.5929 3.6258C29.0206 3.56309 28.4414 3.52041 27.8692 3.49951L27.8074 5.24058C28.3361 5.25887 28.8726 5.29806 29.4012 5.35729L29.5929 3.6258Z" fill="white"/>
<path d="M32.987 4.25457C32.4339 4.10912 31.8669 3.98283 31.3017 3.87744L30.9846 5.59064C31.5081 5.68731 32.0324 5.80489 32.5445 5.93989L32.987 4.25457Z" fill="white"/>
<path d="M17.0022 7.65754L16.2001 6.11157C15.6914 6.37548 15.1854 6.66202 14.6968 6.96251L15.6104 8.44577C16.0625 8.16706 16.531 7.90228 17.0022 7.65754Z" fill="white"/>
<path d="M39.3147 6.96948C38.8261 6.66813 38.321 6.38158 37.8132 6.11768L37.0093 7.66277C37.4805 7.90751 37.9482 8.17316 38.4002 8.45187L39.3147 6.96948Z" fill="white"/>
<path d="M36.2514 5.37822C35.7253 5.15264 35.1836 4.94361 34.641 4.75635L34.074 6.40335C34.5765 6.57667 35.0782 6.77002 35.5651 6.97906L36.2514 5.37822Z" fill="white"/>
<path d="M3.62406 29.5771L5.35554 29.3881C5.29806 28.8594 5.25887 28.322 5.24058 27.7925L3.49951 27.8543C3.51954 28.4274 3.56135 29.0066 3.62406 29.5771Z" fill="white"/>
<path d="M4.75635 19.3599L6.40335 19.9269C6.57667 19.4244 6.77002 18.9227 6.97906 18.4358L5.37822 17.7495C5.15264 18.2747 4.94361 18.8164 4.75635 19.3599Z" fill="white"/>
<path d="M3.87744 22.6984L5.59064 23.0154C5.68731 22.492 5.80489 21.9677 5.93989 21.4555L4.25457 21.0122C4.10912 21.5661 3.98196 22.1331 3.87744 22.6984Z" fill="white"/>
<path d="M3.49951 26.1299L5.24058 26.1917C5.25887 25.6631 5.29806 25.1265 5.35729 24.5979L3.6258 24.4062C3.56222 24.9793 3.52041 25.5585 3.49951 26.1299Z" fill="white"/>
<path d="M6.97393 35.5529C6.76577 35.0669 6.57241 34.5652 6.39909 34.0618L4.75122 34.627C4.93761 35.1714 5.14751 35.714 5.37222 36.2392L6.97393 35.5529Z" fill="white"/>
<path d="M3.875 31.2869C3.97865 31.8495 4.10581 32.4165 4.25126 32.9731L5.93658 32.5306C5.80158 32.0159 5.684 31.4915 5.58819 30.9707L3.875 31.2869Z" fill="white"/>
<path d="M6.96948 14.6853C6.66813 15.1739 6.38158 15.6791 6.11768 16.1869L7.66277 16.9908C7.90751 16.5196 8.17316 16.0519 8.45187 15.5998L6.96948 14.6853Z" fill="white"/>
<path d="M8.44577 38.3896C8.16706 37.9376 7.90228 37.469 7.65754 36.9978L6.11157 37.8C6.37548 38.3086 6.66202 38.8146 6.96251 39.3033L8.44577 38.3896Z" fill="white"/>
<path d="M17.7485 48.6218C18.2746 48.8474 18.8163 49.0564 19.359 49.2437L19.926 47.5967C19.4234 47.4234 18.9217 47.23 18.4349 47.021L17.7485 48.6218Z" fill="white"/>
<path d="M21.0129 49.7454C21.566 49.8908 22.133 50.0171 22.6983 50.1225L23.0153 48.4093C22.4918 48.3126 21.9675 48.1951 21.4554 48.0601L21.0129 49.7454Z" fill="white"/>
<path d="M24.4072 50.3741C24.9795 50.4368 25.5586 50.4794 26.1309 50.5004L26.1927 48.7593C25.664 48.741 25.1275 48.7018 24.5988 48.6426L24.4072 50.3741Z" fill="white"/>
<path d="M36.9978 46.3424L37.8 47.8884C38.3086 47.6245 38.8146 47.3379 39.3033 47.0375L38.3896 45.5542C37.9376 45.8329 37.469 46.0977 36.9978 46.3424Z" fill="white"/>
<path d="M14.6853 47.0305C15.1739 47.3318 15.6791 47.6184 16.1869 47.8823L16.9908 46.3372C16.5196 46.0924 16.0519 45.8268 15.5998 45.5481L14.6853 47.0305Z" fill="white"/>
<path d="M27.7935 48.7595L27.8553 50.5006C28.4267 50.4805 29.0058 50.4379 29.5772 50.376L29.3882 48.6445C28.8595 48.702 28.323 48.7412 27.7935 48.7595Z" fill="white"/>
<path d="M34.061 47.6011L34.6263 49.2489C35.1706 49.0626 35.7133 48.8526 36.2385 48.6279L35.5521 47.0271C35.067 47.2344 34.5653 47.4286 34.061 47.6011Z" fill="white"/>
<path d="M30.9707 48.4119L31.2869 50.1251C31.8495 50.0214 32.4165 49.8943 32.9731 49.7488L32.5306 48.0635C32.0159 48.1985 31.4907 48.3161 30.9707 48.4119Z" fill="white"/>
<path d="M47.0305 39.3147C47.3318 38.8261 47.6184 38.321 47.8823 37.8132L46.3372 37.0093C46.0924 37.4805 45.8268 37.9482 45.5481 38.4002L47.0305 39.3147Z" fill="white"/>
<path d="M49.2437 34.6402L47.5967 34.0732C47.4234 34.5758 47.23 35.0775 47.021 35.5643L48.6218 36.2507C48.8474 35.7255 49.0564 35.1837 49.2437 34.6402Z" fill="white"/>
<path d="M50.1251 22.713C50.0214 22.1504 49.8943 21.5834 49.7488 21.0269L48.0635 21.4693C48.1985 21.984 48.3161 22.5084 48.4119 23.0292L50.1251 22.713Z" fill="white"/>
<path d="M45.5542 15.6104C45.8329 16.0625 46.0977 16.531 46.3424 17.0022L47.8884 16.2001C47.6245 15.6914 47.3379 15.1854 47.0375 14.6968L45.5542 15.6104Z" fill="white"/>
<path d="M50.376 24.4229L48.6445 24.6119C48.702 25.1405 48.7412 25.6779 48.7595 26.2075L50.5006 26.1456C50.4805 25.5725 50.4387 24.9933 50.376 24.4229Z" fill="white"/>
<path d="M47.0261 18.4471C47.2343 18.9331 47.4276 19.4347 47.601 19.9382L49.2488 19.3729C49.0624 18.8285 48.8525 18.2859 48.6278 17.7607L47.0261 18.4471Z" fill="white"/>
<path d="M50.5004 27.8702L48.7593 27.8083C48.741 28.337 48.7018 28.8735 48.6426 29.4022L50.3741 29.5938C50.4376 29.0207 50.4794 28.4415 50.5004 27.8702Z" fill="white"/>
<path d="M50.1225 31.3017L48.4093 30.9846C48.3126 31.5081 48.1951 32.0324 48.0601 32.5445L49.7454 32.9878C49.8908 32.4339 50.018 31.8669 50.1225 31.3017Z" fill="white"/>
</svg>
