<svg width="68" height="68" viewBox="0 0 68 68" fill="none" xmlns="http://www.w3.org/2000/svg">
<path d="M54.1545 21.7978H46.4856V13.8456C46.4856 11.1755 45.4249 8.61469 43.5368 6.72662C41.6488 4.83854 39.088 3.77783 36.4178 3.77783H13.8456C11.177 3.78282 8.61912 4.84514 6.73213 6.73213C4.84514 8.61912 3.78282 11.177 3.77783 13.8456V32.2812C3.78098 34.297 4.46574 36.2525 5.72083 37.83C6.97593 39.4074 8.72759 40.514 10.6912 40.9701V42.1789C10.6877 42.9215 10.8908 43.6504 11.2778 44.2841C11.6647 44.9179 12.2202 45.4316 12.8823 45.7678C13.5346 46.0875 14.2608 46.2263 14.985 46.1698C15.7093 46.1134 16.4051 45.8636 17.0001 45.4467L21.4578 42.2545V49.1112C21.4628 51.7798 22.5251 54.3376 24.4121 56.2246C26.2991 58.1116 28.857 59.174 31.5256 59.1789H44.9178L51.0001 63.4667C51.6049 63.8949 52.3154 64.1494 53.0546 64.2027C53.7937 64.256 54.5334 64.106 55.1934 63.7689C55.8541 63.431 56.4084 62.9169 56.7951 62.2835C57.1818 61.6501 57.3858 60.9221 57.3845 60.1801V58.9712C59.3309 58.5013 61.0631 57.3911 62.3031 55.8189C63.543 54.2467 64.2189 52.3035 64.2223 50.3012V31.8656C64.2173 29.197 63.155 26.6391 61.268 24.7521C59.381 22.8651 56.8231 21.8028 54.1545 21.7978ZM21.5145 31.8656V37.3812C21.4032 37.4219 21.2957 37.4725 21.1934 37.5323L14.7145 42.1789C14.7145 38.2312 14.7145 37.1734 12.6934 37.1734C11.3959 37.1734 10.1515 36.658 9.23406 35.7405C8.31659 34.823 7.80117 33.5787 7.80117 32.2812V13.8456C7.80117 12.2425 8.43799 10.7051 9.57154 9.57154C10.7051 8.43799 12.2425 7.80117 13.8456 7.80117H36.4178C38.0209 7.80117 39.5583 8.43799 40.6919 9.57154C41.8255 10.7051 42.4623 12.2425 42.4623 13.8456V21.7978H31.6012C28.9293 21.7978 26.3666 22.8579 24.4755 24.7455C22.5844 26.633 21.5195 29.1937 21.5145 31.8656ZM60.1989 50.3012C60.1989 51.5987 59.6835 52.843 58.766 53.7605C57.8486 54.678 56.6042 55.1934 55.3067 55.1934C54.7707 55.1934 54.2566 55.4063 53.8776 55.7854C53.4985 56.1644 53.2856 56.6785 53.2856 57.2145V60.1989L46.8067 55.5712C46.4651 55.3266 46.0558 55.1945 45.6356 55.1934H31.6012C29.9981 55.1934 28.4607 54.5566 27.3271 53.423C26.1935 52.2895 25.5567 50.752 25.5567 49.1489V31.8656C25.5567 30.2625 26.1935 28.7251 27.3271 27.5915C28.4607 26.458 29.9981 25.8212 31.6012 25.8212H54.1545C55.7576 25.8212 57.295 26.458 58.4286 27.5915C59.5621 28.7251 60.1989 30.2625 60.1989 31.8656V50.3012Z" fill="white"/>
<path fill-rule="evenodd" clip-rule="evenodd" d="M50.1121 38.5521H44.0677V32.4888L36.021 42.5754H42.0654V48.6199L50.1121 38.5521Z" fill="white"/>
</svg>
