<svg width="58" height="56" viewBox="0 0 58 56" fill="none" xmlns="http://www.w3.org/2000/svg">
<path d="M50.7786 31.967C51.4042 31.967 51.9114 31.4599 51.9114 30.8342C51.9114 30.2086 51.4042 29.7014 50.7786 29.7014C50.1529 29.7014 49.6458 30.2086 49.6458 30.8342C49.6458 31.4599 50.1529 31.967 50.7786 31.967Z" fill="white"/>
<path d="M31.0718 15.9364C31.5851 16.2968 32.293 16.1726 32.653 15.6594L36.091 10.7608L41.8873 21.5265C42.0834 21.8907 42.462 22.1193 42.8756 22.1234H42.8867C43.296 22.1234 43.674 21.9028 43.8754 21.5459L53.3986 4.65655L53.7604 6.75192C53.8558 7.30427 54.3354 7.69408 54.8776 7.69396C54.9417 7.69396 55.0067 7.68852 55.0721 7.6772C55.6898 7.57049 56.1041 6.98324 55.9974 6.36551L55.1141 1.2512C55.0576 0.924048 54.8606 0.638013 54.5753 0.468431C54.2897 0.298963 53.9444 0.262826 53.63 0.369877L48.7165 2.04179C48.123 2.24366 47.8057 2.88846 48.0077 3.48194C48.2096 4.07553 48.8547 4.39283 49.4478 4.19085L51.4367 3.51411L42.9097 18.6368L37.218 8.0653C37.0314 7.71877 36.6785 7.49357 36.2856 7.47035C35.8918 7.44644 35.5157 7.62916 35.2895 7.95134L30.7947 14.3554C30.4346 14.8684 30.5586 15.5763 31.0718 15.9364Z" fill="white"/>
<path d="M58 15.2491C58 14.6222 57.4918 14.114 56.8649 14.114H50.7787C50.1519 14.114 49.6436 14.6222 49.6436 15.2491V25.754C49.6436 26.3809 50.1518 26.8891 50.7787 26.8891C51.4056 26.8891 51.9137 26.3809 51.9137 25.754V16.3842H55.73V48.9125H51.9137V35.9031C51.9137 35.2762 51.4056 34.768 50.7787 34.768C50.1518 34.768 49.6436 35.2762 49.6436 35.9031V48.9124H47.065V27.0301C47.065 26.4032 46.5568 25.895 45.9299 25.895H39.8435C39.2167 25.895 38.7084 26.4032 38.7084 27.0301V48.9125H36.1435V20.3847C36.1435 19.7578 35.6353 19.2496 35.0084 19.2496H28.9221C28.2953 19.2496 27.787 19.7578 27.787 20.3847V29.4844C24.8818 26.1407 20.6003 24.0232 15.8334 24.0232C7.10296 24.0232 0 31.1261 0 39.8568C0 48.5875 7.10296 55.6905 15.8337 55.6905C20.1297 55.6905 24.0309 53.9699 26.8864 51.1826H56.8649C57.4917 51.1826 58 50.6744 58 50.0475C58 50.0067 57.9976 49.9665 57.9934 49.9269C57.9976 49.8872 58 49.847 58 49.8062V15.2491ZM40.9786 28.1651H44.7949V48.9125H40.9786V28.1651ZM30.0573 21.5198H33.8736V48.9125H28.8146C30.6114 46.3446 31.6674 43.222 31.6674 39.8568C31.6674 37.3643 31.0878 35.005 30.0574 32.9052V21.5198H30.0573ZM16.9687 53.3725V51.5024C16.9687 50.8755 16.4606 50.3673 15.8337 50.3673C15.2068 50.3673 14.6986 50.8755 14.6986 51.5024V53.3725C8.12317 52.8252 2.86534 47.5673 2.31796 40.9919H4.18812C4.81491 40.9919 5.3232 40.4837 5.3232 39.8568C5.3232 39.2299 4.81502 38.7218 4.18812 38.7218H2.31796C2.86534 32.1462 8.12317 26.8885 14.6986 26.3411V28.2113C14.6986 28.8382 15.2068 29.3464 15.8337 29.3464C16.4606 29.3464 16.9687 28.8382 16.9687 28.2113V26.3411C23.5443 26.8885 28.802 32.1463 29.3494 38.7218H27.4792C26.8524 38.7218 26.3441 39.2299 26.3441 39.8568C26.3441 40.4837 26.8523 40.9919 27.4792 40.9919H29.3494C28.802 47.5673 23.5441 52.8252 16.9687 53.3725Z" fill="white"/>
<path d="M21.518 38.7217H16.9686V33.148C16.9686 32.5211 16.4605 32.0129 15.8336 32.0129C15.2067 32.0129 14.6985 32.5211 14.6985 33.148V39.8568C14.6985 40.4837 15.2067 40.9918 15.8336 40.9918H21.5179C22.1447 40.9918 22.653 40.4837 22.653 39.8568C22.653 39.2299 22.1448 38.7217 21.518 38.7217Z" fill="white"/>
</svg>
