<svg width="48" height="48" viewBox="0 0 48 48" fill="none" xmlns="http://www.w3.org/2000/svg">
<g clip-path="url(#clip0_238_271)">
<path d="M47.19 28.1812C46.9762 26.7299 46.7925 25.4737 46.7325 24.6674C46.5337 21.9749 45.8062 20.5424 44.295 19.8187C43.6459 19.5147 42.9338 19.3694 42.2175 19.3949C42 18.4799 41.5575 16.9987 40.8825 16.3312C39.72 15.1837 38.1262 15.1499 37.1925 15.2587C37.0622 14.8299 36.8322 14.4381 36.5213 14.1155C36.2104 13.7928 35.8274 13.5485 35.4037 13.4024C34.3766 13.1036 33.2754 13.193 32.31 13.6537C32.0175 9.17243 31.6425 5.05118 31.215 4.20743C31.0661 3.86341 30.8307 3.5638 30.5317 3.33774C30.2327 3.11168 29.8803 2.96688 29.5087 2.91743C28.3575 2.77493 27.2287 3.58868 26.8837 3.98243C26.6437 4.25993 26.4712 4.45868 26.4862 12.6074C26.4862 16.4287 26.5537 20.7637 26.61 21.5324C26.6587 22.1887 26.5687 24.5324 26.4637 26.7824C26.2806 26.4986 26.1213 26.2001 25.9875 25.8899C25.14 24.0149 23.3625 22.4812 21.0337 21.5849C19.5 20.9999 18.0712 21.1574 17.205 22.0049C16.894 22.3045 16.677 22.6882 16.5805 23.109C16.4839 23.5299 16.512 23.9697 16.6612 24.3749C16.95 25.1774 17.6062 25.9612 18.3637 26.8687C19.0657 27.658 19.6934 28.5103 20.2387 29.4149C20.7302 30.3587 21.1477 31.3391 21.4875 32.3474C21.8767 33.5185 22.3791 34.6488 22.9875 35.7224C23.2687 36.1874 23.5762 36.6787 23.8912 37.1849C24.852 38.6642 25.7284 40.1967 26.5162 41.7749C27.45 43.8112 30.84 45.5249 31.2225 45.7349C31.3115 45.781 31.4088 45.8089 31.5088 45.8167C31.6087 45.8246 31.7092 45.8123 31.8043 45.7806C31.8995 45.749 31.9873 45.6986 32.0626 45.6324C32.1379 45.5662 32.1992 45.4856 32.2428 45.3954C32.2864 45.3051 32.3115 45.207 32.3166 45.1069C32.3216 45.0068 32.3066 44.9067 32.2723 44.8125C32.238 44.7183 32.1852 44.6319 32.1169 44.5585C32.0487 44.485 31.9664 44.426 31.875 44.3849C30.9637 43.9312 28.47 42.4649 27.8625 41.1412C27.0437 39.5004 26.1296 37.909 25.125 36.3749C24.8137 35.8762 24.51 35.3887 24.2325 34.9274C23.6826 33.9456 23.228 32.9134 22.875 31.8449C22.5099 30.7623 22.0597 29.7103 21.5287 28.6987C20.9409 27.7121 20.2617 26.7831 19.5 25.9237C18.8587 25.1737 18.255 24.4237 18.0562 23.8837C18.0045 23.7491 17.9943 23.6021 18.0271 23.4617C18.0599 23.3213 18.134 23.194 18.24 23.0962C18.5775 22.7662 19.3425 22.5712 20.49 23.0062C23.1525 24.0224 24.2137 25.6312 24.615 26.5274C24.9954 27.4473 25.5923 28.2616 26.355 28.9012C26.3175 29.5837 26.2875 30.1874 26.2612 30.6299C26.25 30.8283 26.3179 31.023 26.4501 31.1714C26.5822 31.3197 26.7679 31.4096 26.9662 31.4212H27C27.1913 31.4215 27.3756 31.3487 27.515 31.2176C27.6544 31.0866 27.7385 30.9072 27.75 30.7162C27.75 30.3937 28.2 22.8412 28.095 21.4237C27.975 19.6649 27.9037 6.63743 28.125 4.87493C28.4596 4.59001 28.8819 4.42852 29.3212 4.41743C29.4112 4.41743 29.6512 4.45868 29.8687 4.89368C30.21 5.59118 30.6187 10.3387 30.9487 16.1737V16.2749C30.9487 16.2749 30.9487 16.2937 30.9487 16.3049C31.1287 19.4024 31.2862 22.8037 31.41 26.0549C31.4174 26.2538 31.5036 26.4416 31.6495 26.577C31.7955 26.7124 31.9892 26.7843 32.1881 26.7768C32.387 26.7693 32.5748 26.6832 32.7102 26.5372C32.8456 26.3913 32.9174 26.1976 32.91 25.9987C32.8537 24.4987 32.685 20.2724 32.43 15.9262C32.4229 15.7699 32.4532 15.6142 32.5184 15.472C32.5837 15.3298 32.6819 15.2052 32.805 15.1087C33.36 14.6699 34.41 14.6699 34.9275 14.8349C35.7525 15.1012 35.865 16.1474 35.8687 16.1887C35.8687 16.2562 36.5362 23.1599 36.6187 24.7274C36.6293 24.9191 36.7129 25.0994 36.8525 25.2313C36.992 25.3631 37.1768 25.4365 37.3687 25.4362H37.4137C37.6121 25.4246 37.7977 25.3347 37.9299 25.1864C38.0621 25.038 38.13 24.8433 38.1187 24.6449C38.0437 23.3324 37.5937 18.5512 37.425 16.7437C38.0775 16.6799 39.1125 16.7137 39.8137 17.4037C40.245 17.8274 40.695 19.3912 40.8787 20.3662V20.3924C40.8787 20.3924 40.8787 20.4112 40.8787 20.4224C41.2625 22.0082 41.3966 23.6441 41.2762 25.2712C41.2664 25.3692 41.2759 25.4682 41.3043 25.5625C41.3327 25.6568 41.3794 25.7446 41.4418 25.8208C41.5041 25.8971 41.5808 25.9603 41.6676 26.0069C41.7544 26.0535 41.8495 26.0826 41.9475 26.0924H42.0225C42.2091 26.0934 42.3893 26.0247 42.528 25.8999C42.6666 25.7751 42.7538 25.6031 42.7725 25.4174C42.895 23.913 42.8104 22.3989 42.5212 20.9174C42.9107 20.9359 43.2928 21.0302 43.6462 21.1949C44.4637 21.5699 45.0412 22.3199 45.225 24.7949C45.2887 25.6537 45.4762 26.9324 45.6937 28.4137C46.095 31.1587 46.5975 34.5749 46.4887 36.6637C46.3237 39.8287 45.0225 44.6662 45.0112 44.7149C44.9842 44.8159 44.9785 44.9215 44.9947 45.0248C45.0108 45.1282 45.0484 45.227 45.105 45.3149L46.605 47.6699C46.7153 47.8298 46.8833 47.9407 47.0737 47.9792C47.2641 48.0177 47.462 47.9809 47.6258 47.8764C47.7895 47.7719 47.9064 47.608 47.9517 47.4191C47.997 47.2302 47.9673 47.0311 47.8687 46.8637L46.5412 44.7862C46.8412 43.6237 47.835 39.6187 47.985 36.7424C48.1162 34.4999 47.6025 30.9937 47.19 28.1812Z" fill="white"/>
<path d="M0.75 5.9999H22.5825C22.7631 7.02963 23.2583 7.97811 24 8.7149C24.1407 8.85563 24.3316 8.93469 24.5306 8.93469C24.7296 8.93469 24.9205 8.85563 25.0613 8.7149C25.202 8.57417 25.281 8.3833 25.281 8.18428C25.281 7.98525 25.202 7.79438 25.0613 7.65365C24.4759 7.06594 24.1117 6.29394 24.0304 5.46845C23.949 4.64295 24.1555 3.81472 24.615 3.12407C25.0744 2.43342 25.7584 1.92281 26.5512 1.67875C27.3439 1.4347 28.1967 1.4722 28.965 1.7849C29.0561 1.82233 29.1537 1.84144 29.2522 1.84116C29.3507 1.84087 29.4481 1.82119 29.539 1.78323C29.7226 1.70658 29.8682 1.56014 29.9437 1.37615C29.9812 1.28505 30.0003 1.18746 30 1.08897C29.9997 0.990477 29.98 0.893006 29.9421 0.80212C29.9041 0.711235 29.8486 0.628716 29.7788 0.559274C29.7089 0.489832 29.6261 0.434827 29.535 0.3974C28.809 0.0987262 28.0238 -0.0280713 27.2408 0.0269118C26.4577 0.0818949 25.6979 0.31717 25.0208 0.71436C24.3437 1.11155 23.7676 1.6599 23.3374 2.31658C22.9073 2.97326 22.6348 3.72049 22.5413 4.4999H0.75C0.551088 4.4999 0.360322 4.57892 0.21967 4.71957C0.0790176 4.86022 0 5.05099 0 5.2499C0 5.44881 0.0790176 5.63958 0.21967 5.78023C0.360322 5.92088 0.551088 5.9999 0.75 5.9999Z" fill="white"/>
<path d="M33.75 4.5C33.5511 4.5 33.3603 4.57902 33.2197 4.71967C33.079 4.86032 33 5.05109 33 5.25C33 5.44891 33.079 5.63968 33.2197 5.78033C33.3603 5.92098 33.5511 6 33.75 6H47.25C47.4489 6 47.6397 5.92098 47.7803 5.78033C47.921 5.63968 48 5.44891 48 5.25C48 5.05109 47.921 4.86032 47.7803 4.71967C47.6397 4.57902 47.4489 4.5 47.25 4.5H33.75Z" fill="white"/>
<path d="M5.25005 29.25C6.51144 29.2485 7.73012 28.7929 8.68316 27.9666C9.63619 27.1403 10.2599 25.9984 10.4401 24.75H14.2501C14.449 24.75 14.6397 24.671 14.7804 24.5303C14.921 24.3897 15.0001 24.1989 15.0001 24C15.0001 23.8011 14.921 23.6103 14.7804 23.4697C14.6397 23.329 14.449 23.25 14.2501 23.25H10.4401C10.2963 22.2537 9.86908 21.3198 9.20943 20.5595C8.54978 19.7992 7.68546 19.2445 6.71945 18.9616C5.75343 18.6787 4.72645 18.6795 3.76086 18.9638C2.79527 19.2482 1.93178 19.8041 1.27326 20.5654C0.614739 21.3267 0.188956 22.2612 0.0466385 23.2577C-0.0956791 24.2542 0.0514684 25.2706 0.47055 26.1858C0.889631 27.101 1.56298 27.8764 2.41037 28.4197C3.25776 28.963 4.24347 29.2512 5.25005 29.25ZM5.25005 20.25C5.99173 20.25 6.71676 20.4699 7.33344 20.882C7.95012 21.294 8.43077 21.8797 8.7146 22.5649C8.99843 23.2502 9.07269 24.0042 8.928 24.7316C8.7833 25.459 8.42615 26.1272 7.9017 26.6516C7.37725 27.1761 6.70907 27.5332 5.98164 27.6779C5.25421 27.8226 4.50021 27.7484 3.81499 27.4645C3.12977 27.1807 2.5441 26.7001 2.13204 26.0834C1.71999 25.4667 1.50005 24.7417 1.50005 24C1.50005 23.0054 1.89514 22.0516 2.5984 21.3483C3.30166 20.6451 4.25549 20.25 5.25005 20.25Z" fill="white"/>
<path d="M0.75 43.5001H11.31C11.4992 44.7409 12.1268 45.873 13.0789 46.6909C14.0311 47.5089 15.2448 47.9586 16.5 47.9586C17.7552 47.9586 18.9689 47.5089 19.9211 46.6909C20.8732 45.873 21.5008 44.7409 21.69 43.5001H24.375C24.5739 43.5001 24.7647 43.421 24.9053 43.2804C25.046 43.1397 25.125 42.949 25.125 42.7501C25.125 42.5511 25.046 42.3604 24.9053 42.2197C24.7647 42.0791 24.5739 42.0001 24.375 42.0001H21.69C21.5008 40.7592 20.8732 39.6271 19.9211 38.8092C18.9689 37.9912 17.7552 37.5415 16.5 37.5415C15.2448 37.5415 14.0311 37.9912 13.0789 38.8092C12.1268 39.6271 11.4992 40.7592 11.31 42.0001H0.75C0.551088 42.0001 0.360322 42.0791 0.21967 42.2197C0.0790176 42.3604 0 42.5511 0 42.7501C0 42.949 0.0790176 43.1397 0.21967 43.2804C0.360322 43.421 0.551088 43.5001 0.75 43.5001ZM16.5 39.0001C17.2417 39.0001 17.9667 39.22 18.5834 39.632C19.2001 40.0441 19.6807 40.6298 19.9645 41.315C20.2484 42.0002 20.3226 42.7542 20.1779 43.4816C20.0333 44.2091 19.6761 44.8773 19.1517 45.4017C18.6272 45.9261 17.959 46.2833 17.2316 46.428C16.5042 46.5727 15.7502 46.4984 15.0649 46.2146C14.3797 45.9308 13.794 45.4501 13.382 44.8334C12.9699 44.2168 12.75 43.4917 12.75 42.7501C12.75 41.7555 13.1451 40.8017 13.8483 40.0984C14.5516 39.3951 15.5054 39.0001 16.5 39.0001Z" fill="white"/>
</g>
<defs>
<clipPath id="clip0_238_271">
<rect width="48" height="48" fill="white"/>
</clipPath>
</defs>
</svg>
