<svg width="61" height="61" viewBox="0 0 61 61" fill="none" xmlns="http://www.w3.org/2000/svg">
<path d="M44.2899 24.5383C47.3407 18.7328 46.4255 11.3873 41.5441 6.50591C35.5363 0.498096 25.7957 0.498096 19.7878 6.50591C13.78 12.5137 13.78 22.2544 19.7878 28.2622C24.6501 33.1245 31.9574 34.0516 37.7522 31.0436" stroke="white" stroke-width="2.67" stroke-miterlimit="10" stroke-linecap="round" stroke-linejoin="round"/>
<path d="M42.0894 17.397H41.0996" stroke="white" stroke-width="2.67" stroke-miterlimit="10" stroke-linecap="round" stroke-linejoin="round"/>
<path d="M19.2427 17.3711H20.2325" stroke="white" stroke-width="2.67" stroke-miterlimit="10" stroke-linecap="round" stroke-linejoin="round"/>
<path d="M30.6531 28.8074V27.8176" stroke="white" stroke-width="2.67" stroke-miterlimit="10" stroke-linecap="round" stroke-linejoin="round"/>
<path d="M36.2991 17.384H30.6809H30.6792V5.96069" stroke="white" stroke-width="2.67" stroke-miterlimit="10" stroke-linecap="round" stroke-linejoin="round"/>
<path d="M5.95995 30.9524C8.37012 30.7178 10.5141 32.4813 10.7487 34.8914L10.7746 35.1569C11.0092 37.567 9.24561 39.711 6.83544 39.9456C4.42539 40.1802 2.28142 38.4166 2.04681 36.0066L2.02094 35.7411C1.78633 33.3309 3.5499 31.187 5.95995 30.9524Z" stroke="white" stroke-width="2.67" stroke-miterlimit="10" stroke-linecap="round" stroke-linejoin="round"/>
<path d="M9.74745 46.3618L14.7749 52.0358H22.2611C23.4915 52.0358 24.489 51.0383 24.489 49.808C24.489 48.5775 23.4915 47.5801 22.2611 47.5801H17.3927L11.706 41.2655L11.3029 40.8983C10.4678 40.2179 9.40504 39.8168 8.26371 39.8168C5.21662 39.8168 2.93804 42.615 3.55527 45.5989L6.39758 59.3406" stroke="white" stroke-width="2.67" stroke-miterlimit="10" stroke-linecap="round" stroke-linejoin="round"/>
<path d="M55.3719 30.9524C52.9618 30.7178 50.8178 32.4813 50.5832 34.8914L50.5573 35.1569C50.3227 37.567 52.0863 39.711 54.4964 39.9456C56.9065 40.1802 59.0505 38.4166 59.2851 36.0066L59.3109 35.7411C59.5456 33.3309 57.782 31.187 55.3719 30.9524Z" stroke="white" stroke-width="2.67" stroke-miterlimit="10" stroke-linecap="round" stroke-linejoin="round"/>
<path d="M51.5845 46.3618L46.5571 52.0358H39.0709C37.8405 52.0358 36.843 51.0383 36.843 49.808C36.843 48.5775 37.8405 47.5801 39.0709 47.5801H43.9393L49.626 41.2655L50.0291 40.8983C50.8642 40.2179 51.9269 39.8168 53.0683 39.8168C56.1154 39.8168 58.3939 42.615 57.7767 45.5989L54.9344 59.3406" stroke="white" stroke-width="2.67" stroke-miterlimit="10" stroke-linecap="round" stroke-linejoin="round"/>
<path d="M25.9883 59.3406H14.7749V52.0358H46.5569V59.3406H35.3127" stroke="white" stroke-width="2.67" stroke-miterlimit="10" stroke-linecap="round" stroke-linejoin="round"/>
</svg>
