<svg width="86" height="87" viewBox="0 0 86 87" fill="none" xmlns="http://www.w3.org/2000/svg">
<g clip-path="url(#clip0_50_3841)">
<path d="M23.1387 71.4166H15.668C7.42879 71.4166 0.726562 64.6355 0.726562 56.2994C0.726562 47.9633 7.42879 41.1823 15.668 41.1823H23.1387V46.2213H15.668C10.1745 46.2213 5.70703 50.7414 5.70703 56.2994C5.70703 61.8575 10.1745 66.3776 15.668 66.3776H23.1387V71.4166Z" fill="#6099B1"/>
<path d="M23.1387 15.9869H18.9883L9.69011 8.93286L6.70442 12.9628L10.6881 15.9869H0.726562V21.026H10.6881L6.70442 24.05L9.69011 28.08L18.9883 21.026H23.1387V15.9869Z" fill="#6099B1"/>
<path d="M55.8438 8.42834H30.6094C25.1309 8.42834 20.6484 12.9635 20.6484 18.5065C20.6484 24.0494 25.1309 28.5846 30.6094 28.5846H55.8438C61.3223 28.5846 65.8047 24.0494 65.8047 18.5065C65.8047 12.9635 61.3223 8.42834 55.8438 8.42834Z" fill="#FFC72D"/>
<path d="M55.8438 33.6237H30.6094C25.1309 33.6237 20.6484 38.1588 20.6484 43.7018C20.6484 49.2448 25.1309 53.7799 30.6094 53.7799H55.8438C61.3223 53.7799 65.8047 49.2448 65.8047 43.7018C65.8047 38.1588 61.3223 33.6237 55.8438 33.6237Z" fill="#FFC72D"/>
<path d="M70.7852 46.2213H63.3145V41.1823H70.7852C76.2786 41.1823 80.7461 36.6622 80.7461 31.1041C80.7461 25.5461 76.2786 21.026 70.7852 21.026H63.3145V15.9869H70.7852C79.0243 15.9869 85.7266 22.768 85.7266 31.1041C85.7266 39.4402 79.0243 46.2213 70.7852 46.2213Z" fill="#3B4A51"/>
<path d="M73.2754 59.3235L70.2891 63.3534L74.2728 66.3775H63.3145V71.4166H74.2728L70.2891 74.4407L73.2754 78.4706L85.7266 68.897L73.2754 59.3235Z" fill="#3B4A51"/>
<path d="M65.8047 43.7018C65.8047 49.2448 61.3223 53.7799 55.8438 53.7799H43.2266V33.6237H55.8438C61.3223 33.6237 65.8047 38.1588 65.8047 43.7018Z" fill="#F59D00"/>
<path d="M55.8438 28.5846H43.2266V8.42834H55.8438C61.3223 8.42834 65.8047 12.9635 65.8047 18.5065C65.8047 24.0494 61.3223 28.5846 55.8438 28.5846Z" fill="#F59D00"/>
<path d="M55.8438 58.819H30.6094C25.1309 58.819 20.6484 63.3541 20.6484 68.8971C20.6484 74.4401 25.1309 78.9752 30.6094 78.9752H55.8438C61.3223 78.9752 65.8047 74.4401 65.8047 68.8971C65.8047 63.3541 61.3223 58.819 55.8438 58.819Z" fill="#FFC72D"/>
<path d="M65.8047 68.8971C65.8047 74.4401 61.3223 78.9752 55.8438 78.9752H43.2266V58.819H55.8438C61.3223 58.819 65.8047 63.3541 65.8047 68.8971Z" fill="#F59D00"/>
</g>
<defs>
<clipPath id="clip0_50_3841">
<rect width="85" height="86" fill="white" transform="translate(0.726562 0.701782)"/>
</clipPath>
</defs>
</svg>
