<svg width="65" height="63" viewBox="0 0 65 63" fill="none" xmlns="http://www.w3.org/2000/svg">
<path d="M28.1414 6.72673C29.7915 2.46928 35.8155 2.46928 37.4656 6.72673L40.1209 13.5779C41.6816 17.6047 45.4543 20.3457 49.7663 20.5857L57.1027 20.994C61.6617 21.2477 63.5232 26.9768 59.9841 29.8618L54.2887 34.5043C50.9413 37.233 49.5003 41.668 50.6045 45.8431L52.4833 52.9466C53.6508 57.3609 48.7773 60.9017 44.9399 58.4273L38.7647 54.4453C35.1351 52.1049 30.4718 52.1049 26.8423 54.4453L20.667 58.4273C16.8296 60.9017 11.9561 57.3609 13.1236 52.9467L15.0024 45.8431C16.1067 41.668 14.6657 37.233 11.3182 34.5043L5.6229 29.8618C2.08374 26.9768 3.94526 21.2477 8.50423 20.994L15.8406 20.5857C20.1527 20.3457 23.9253 17.6047 25.486 13.5779L28.1414 6.72673Z" stroke="white" stroke-width="6"/>
</svg>
